<?xml version="1.0" encoding="UTF-8"?>
<svg width="13px" height="14px" viewBox="0 0 13 14" version="1.1" xmlns="http://www.w3.org/2000/svg" xmlns:xlink="http://www.w3.org/1999/xlink">
    <!-- Generator: Sketch 41.2 (35397) - http://www.bohemiancoding.com/sketch -->
    <title>input-icons/cal</title>
    <desc>Created with Sketch.</desc>
    <defs></defs>
    <g id="Dashboard" stroke="none" stroke-width="1" fill="none" fill-rule="evenodd">
        <g id="Head-Notification" transform="translate(-255.000000, -196.000000)" fill="#7D899B">
            <g id="Choose-Date" transform="translate(240.000000, 182.000000)">
                <path d="M16,27 L18.25,27 L18.25,24.75 L16,24.75 L16,27 Z M18.75,27 L21.25,27 L21.25,24.75 L18.75,24.75 L18.75,27 Z M16,24.25 L18.25,24.25 L18.25,21.75 L16,21.75 L16,24.25 Z M18.75,24.25 L21.25,24.25 L21.25,21.75 L18.75,21.75 L18.75,24.25 Z M16,21.25 L18.25,21.25 L18.25,19 L16,19 L16,21.25 Z M21.75,27 L24.25,27 L24.25,24.75 L21.75,24.75 L21.75,27 Z M18.75,21.25 L21.25,21.25 L21.25,19 L18.75,19 L18.75,21.25 Z M24.75,27 L27,27 L27,24.75 L24.75,24.75 L24.75,27 Z M21.75,24.25 L24.25,24.25 L24.25,21.75 L21.75,21.75 L21.75,24.25 Z M19,17.5 L19,15.25 C19,15.1822913 18.9752607,15.1236982 18.9257812,15.0742188 C18.8763018,15.0247393 18.8177087,15 18.75,15 L18.25,15 C18.1822913,15 18.1236982,15.0247393 18.0742188,15.0742188 C18.0247393,15.1236982 18,15.1822913 18,15.25 L18,17.5 C18,17.5677087 18.0247393,17.6263018 18.0742188,17.6757812 C18.1236982,17.7252607 18.1822913,17.75 18.25,17.75 L18.75,17.75 C18.8177087,17.75 18.8763018,17.7252607 18.9257812,17.6757812 C18.9752607,17.6263018 19,17.5677087 19,17.5 Z M24.75,24.25 L27,24.25 L27,21.75 L24.75,21.75 L24.75,24.25 Z M21.75,21.25 L24.25,21.25 L24.25,19 L21.75,19 L21.75,21.25 Z M24.75,21.25 L27,21.25 L27,19 L24.75,19 L24.75,21.25 Z M25,17.5 L25,15.25 C25,15.1822913 24.9752607,15.1236982 24.9257812,15.0742188 C24.8763018,15.0247393 24.8177087,15 24.75,15 L24.25,15 C24.1822913,15 24.1236982,15.0247393 24.0742188,15.0742188 C24.0247393,15.1236982 24,15.1822913 24,15.25 L24,17.5 C24,17.5677087 24.0247393,17.6263018 24.0742188,17.6757812 C24.1236982,17.7252607 24.1822913,17.75 24.25,17.75 L24.75,17.75 C24.8177087,17.75 24.8763018,17.7252607 24.9257812,17.6757812 C24.9752607,17.6263018 25,17.5677087 25,17.5 Z M28,17 L28,27 C28,27.2708347 27.9010427,27.5052073 27.703125,27.703125 C27.5052073,27.9010427 27.2708347,28 27,28 L16,28 C15.7291653,28 15.4947927,27.9010427 15.296875,27.703125 C15.0989573,27.5052073 15,27.2708347 15,27 L15,17 C15,16.7291653 15.0989573,16.4947927 15.296875,16.296875 C15.4947927,16.0989573 15.7291653,16 16,16 L17,16 L17,15.25 C17,14.9062483 17.1223946,14.6119804 17.3671875,14.3671875 C17.6119804,14.1223946 17.9062483,14 18.25,14 L18.75,14 C19.0937517,14 19.3880196,14.1223946 19.6328125,14.3671875 C19.8776054,14.6119804 20,14.9062483 20,15.25 L20,16 L23,16 L23,15.25 C23,14.9062483 23.1223946,14.6119804 23.3671875,14.3671875 C23.6119804,14.1223946 23.9062483,14 24.25,14 L24.75,14 C25.0937517,14 25.3880196,14.1223946 25.6328125,14.3671875 C25.8776054,14.6119804 26,14.9062483 26,15.25 L26,16 L27,16 C27.2708347,16 27.5052073,16.0989573 27.703125,16.296875 C27.9010427,16.4947927 28,16.7291653 28,17 Z" id="input-icons/cal"></path>
            </g>
        </g>
    </g>
</svg>