<?xml version="1.0" encoding="UTF-8"?>
<svg width="8px" height="6px" viewBox="0 0 8 6" version="1.1" xmlns="http://www.w3.org/2000/svg" xmlns:xlink="http://www.w3.org/1999/xlink">
    <!-- Generator: Sketch 41.2 (35397) - http://www.bohemiancoding.com/sketch -->
    <title>Page 1</title>
    <desc>Created with Sketch.</desc>
    <defs></defs>
    <g id="Dashboard" stroke="none" stroke-width="1" fill="none" fill-rule="evenodd">
        <g id="Product-My-Product--Uncheck" transform="translate(-264.000000, -197.000000)" fill="#29AB58">
            <path d="M271.915294,197.734118 L271.275294,197.094118 C271.212549,197.031372 271.140393,197 271.058824,197 C270.977254,197 270.905098,197.031372 270.842354,197.094118 L266.992941,200.943529 L265.157647,199.098823 C265.094902,199.042352 265.022746,199.014118 264.941176,199.014118 C264.859607,199.014118 264.787451,199.042352 264.724706,199.098823 L264.084706,199.738823 C264.028235,199.801569 264,199.873725 264,199.955294 C264,200.036864 264.028235,200.109019 264.084706,200.171765 L266.776471,202.872941 C266.832942,202.935687 266.903529,202.967059 266.988236,202.967059 C267.072942,202.967059 267.143529,202.935687 267.2,202.872941 L271.915294,198.167059 C271.971765,198.104313 272,198.030589 272,197.945882 C272,197.861176 271.971765,197.790588 271.915294,197.734118 Z" id="Page-1"></path>
        </g>
    </g>
</svg>