<?xml version="1.0" encoding="UTF-8"?>
<svg width="8px" height="6px" viewBox="0 0 8 6" version="1.1" xmlns="http://www.w3.org/2000/svg" xmlns:xlink="http://www.w3.org/1999/xlink">
    <!-- Generator: Sketch 41.2 (35397) - http://www.bohemiancoding.com/sketch -->
    <title>check</title>
    <desc>Created with Sketch.</desc>
    <defs></defs>
    <g id="Dashboard" stroke="none" stroke-width="1" fill="none" fill-rule="evenodd">
        <path d="M7.915294,0.734118 L7.275294,0.094118 C7.212549,0.031372 7.140393,0 7.058824,0 C6.977254,0 6.905098,0.031372 6.842354,0.094118 L2.992941,3.943529 L1.157647,2.098823 C1.094902,2.042352 1.022746,2.014118 0.941176,2.014118 C0.859607,2.014118 0.787451,2.042352 0.724706,2.098823 L0.084706,2.738823 C0.028235,2.801569 0,2.873725 0,2.955294 C0,3.036864 0.028235,3.109019 0.084706,3.171765 L2.776471,5.872941 C2.832942,5.935687 2.903529,5.967059 2.988236,5.967059 C3.072942,5.967059 3.143529,5.935687 3.2,5.872941 L7.915294,1.167059 C7.971765,1.104313 8,1.030589 8,0.945882 C8,0.861176 7.971765,0.790588 7.915294,0.734118 Z" id="check" fill="#FFFFFF"></path>
    </g>
</svg>