<?xml version="1.0" encoding="UTF-8"?>
<svg width="30px" height="30px" viewBox="0 0 30 30" version="1.1" xmlns="http://www.w3.org/2000/svg" xmlns:xlink="http://www.w3.org/1999/xlink">
    <!-- Generator: Sketch 41.2 (35397) - http://www.bohemiancoding.com/sketch -->
    <title>chrome</title>
    <desc>Created with Sketch.</desc>
    <defs>
        <polygon id="path-1" points="0.0043902439 0.0293649117 0.0043902439 29.9998674 29.9708443 29.9998674 29.9708443 0.0293649117 0.0043902439 0.0293649117"></polygon>
    </defs>
    <g id="Dashboard" stroke="none" stroke-width="1" fill="none" fill-rule="evenodd">
        <g id="Head-Notification" transform="translate(-255.000000, -110.000000)">
            <g id="chrome" transform="translate(255.000000, 110.000000)">
                <g id="ico">
                    <mask id="mask-2" fill="white">
                        <use xlink:href="#path-1"></use>
                    </mask>
                    <g id="Clip-2"></g>
                    <path d="M14.9462927,0.0320487805 C14.9462927,0.0320487805 23.7816585,-0.364682927 28.4642927,8.49870732 L14.195122,8.49870732 C14.195122,8.49870732 11.5003902,8.41009756 9.20319512,11.673878 C8.54041463,13.041 7.83380488,14.4520976 8.62902439,17.2300244 C7.48053659,15.290122 2.53265854,6.69087805 2.53265854,6.69087805 C2.53265854,6.69087805 6.02282927,0.384731707 14.9462927,0.0320487805 Z" id="Fill-1" fill="#E16B5A" mask="url(#mask-2)"></path>
                    <path d="M14.9462927,0.0320487805 C14.7939512,0.0383414634 14.6467317,0.0500487805 14.4975366,0.0594878049 C16.8829756,0.233268293 23.3277073,1.37480488 27.0914634,8.49870732 L28.4637073,8.49870732 C23.7813659,-0.36497561 14.9462927,0.0320487805 14.9462927,0.0320487805 Z" id="Fill-3" fill="#CC6152" mask="url(#mask-2)"></path>
                    <path d="M28.0044146,22.5360732 C28.0044146,22.5360732 23.9302683,30.3713415 13.899,29.9857317 C15.1363171,27.8477561 21.035122,17.6519268 21.035122,17.6519268 C21.035122,17.6519268 22.4593902,15.366439 20.7776341,11.7488049 C19.9227073,10.4923171 17.3331951,9.17553659 14.5252683,8.47353659 C16.7835366,8.45121951 28.4362683,8.475 28.4362683,8.475 C28.4362683,8.475 32.1610976,14.6459268 28.0044146,22.5360732 Z" id="Fill-4" fill="#FFD464" mask="url(#mask-2)"></path>
                    <path d="M28.4359756,8.47529268 C28.4359756,8.47529268 22.4920244,8.463 18.2718293,8.46439024 C22.3205122,8.46556098 27.1700488,8.47529268 27.1700488,8.47529268 C27.1700488,8.47529268 30.8951707,14.6459268 26.7387805,22.5360732 C26.7387805,22.5360732 23.0053171,29.7019024 13.8987073,29.9857317 C23.9299756,30.3713415 28.0044146,22.5360732 28.0044146,22.5360732 C32.1610976,14.6459268 28.4359756,8.47529268 28.4359756,8.47529268 Z" id="Fill-5" fill="#F2C95F" mask="url(#mask-2)"></path>
                    <path d="M1.95131707,22.5954878 C1.95131707,22.5954878 -2.80939024,15.1551951 2.54121951,6.67631707 C3.77773171,8.81509756 9.67339024,19.0129756 9.67339024,19.0129756 C9.67339024,19.0129756 10.9433415,21.3867805 14.9230976,21.7417317 C16.4402927,21.6310976 18.0182927,21.5373659 20.0313659,19.4617317 C18.9215122,21.4244634 13.9333171,29.9997073 13.9333171,29.9997073 C13.9333171,29.9997073 6.71743902,30.1343415 1.95131707,22.5954878 Z" id="Fill-6" fill="#74B340" mask="url(#mask-2)"></path>
                </g>
                <path d="M21.7008293,15.1363902 C21.7008293,18.8866829 18.6605122,21.9266341 14.9105122,21.9266341 C11.1602195,21.9266341 8.12026829,18.8866829 8.12026829,15.1363902 C8.12026829,11.3863902 11.1602195,8.34636585 14.9105122,8.34636585 C18.6605122,8.34636585 21.7008293,11.3863902 21.7008293,15.1363902 Z" id="Fill-8" fill="#FFFFFF"></path>
                <path d="M20.2934634,15.1363902 C20.2934634,18.1106341 17.882561,20.5218293 14.9082439,20.5218293 C11.934,20.5218293 9.52280488,18.1106341 9.52280488,15.1363902 C9.52280488,12.1620732 11.934,9.75117073 14.9082439,9.75117073 C17.882561,9.75117073 20.2934634,12.1620732 20.2934634,15.1363902 Z" id="Fill-9" fill="#2995CC"></path>
                <path d="M14.9097073,9.75234146 C14.8022195,9.75234146 14.6961951,9.75629268 14.5909756,9.76229268 C17.4166098,9.9275122 19.6571707,12.270439 19.6571707,15.1374878 C19.6571707,18.0049024 17.4166098,20.3480488 14.5909756,20.5132683 C14.6964878,20.5189756 14.8025122,20.5232927 14.9097073,20.5232927 C17.8833659,20.5232927 20.2948537,18.1118049 20.2948537,15.1374878 C20.2948537,12.1635366 17.8833659,9.75234146 14.9097073,9.75234146 Z" id="Fill-10" fill="#268CBF"></path>
            </g>
        </g>
    </g>
</svg>