<?xml version="1.0" encoding="UTF-8"?>
<svg width="42px" height="43px" viewBox="0 0 42 43" version="1.1" xmlns="http://www.w3.org/2000/svg" xmlns:xlink="http://www.w3.org/1999/xlink">
    <!-- Generator: Sketch 41.2 (35397) - http://www.bohemiancoding.com/sketch -->
    <title>Page 1</title>
    <desc>Created with Sketch.</desc>
    <defs></defs>
    <g id="Dashboard" stroke="none" stroke-width="1" fill="none" fill-rule="evenodd">
        <g id="Setings" transform="translate(-20.000000, -90.000000)" fill="#646E7E">
            <g id="Group-5" transform="translate(15.000000, 81.000000)">
                <g id="Group-4">
                    <g id="Group-13">
                        <g id="Group-3">
                            <g id="Group-14">
                                <path d="M26,9.05365854 C23.1316942,9.05365854 20.417083,9.59999781 17.8561008,10.6926829 C15.2951121,11.785368 13.0585453,13.2877961 11.1463415,15.2 C9.23413694,17.1122039 7.73171278,19.3487707 6.63902439,21.9097594 C5.546336,24.4707415 5,27.1853527 5,30.0536585 C5,32.9219643 5.546336,35.6365755 6.63902439,38.1975577 C7.73171278,40.7585464 9.23413694,42.9951132 11.1463415,44.9073171 C13.0585453,46.8195216 15.2951121,48.3219458 17.8561008,49.4146341 C20.417083,50.5073225 23.1316942,51.0536585 26,51.0536585 C28.8683058,51.0536585 31.582917,50.5073225 34.1438992,49.4146341 C36.7048879,48.3219458 38.9414547,46.8195216 40.8536585,44.9073171 C42.7658624,42.9951132 44.2682905,40.7585464 45.3609756,38.1975577 C46.4536607,35.6365755 47,32.9219643 47,30.0536585 C47,27.1853527 46.4536607,24.4707415 45.3609756,21.9097594 C44.2682905,19.3487707 42.7658624,17.1122039 40.8536585,15.2 C38.9414547,13.2877961 36.7048879,11.785368 34.1438992,10.6926829 C31.582917,9.59999781 28.8683058,9.05365854 26,9.05365854 Z M26,10.795122 C28.6634277,10.795122 31.1560888,11.3073105 33.4780488,12.3317073 C35.8000087,13.3561041 37.8487696,14.7219425 39.6243902,16.4292683 C41.3317161,18.204889 42.6975544,20.2536498 43.7219512,22.5756098 C44.746348,24.8975697 45.2585366,27.3902308 45.2585366,30.0536585 C45.2585366,31.2146385 45.1560976,32.3585333 44.9512195,33.4853626 C44.7463415,34.6121984 44.4390244,35.6877983 44.0292683,36.7121951 C43.6878005,37.7365919 43.2268347,38.7268249 42.6463447,39.6829268 C42.0658482,40.6390288 41.4341485,41.5268227 40.7512195,42.3463415 C40.2731685,42.1414634 39.658541,41.9024412 38.9073171,41.6292683 C38.1560932,41.3560954 37.3365876,41.0487849 36.4487805,40.7073171 C35.6292617,40.4341442 34.7756119,40.1609778 33.8878049,39.8878049 C32.9999978,39.614632 32.2146363,39.3756098 31.5317073,39.1707317 C31.3951241,39.1024368 31.3097572,39.0170764 31.2756065,38.9146374 C31.2414623,38.8121918 31.2243902,38.5219534 31.2243902,38.0439024 C31.2243902,37.6341463 31.2926851,37.2243902 31.4292683,36.8146341 C31.5658515,36.404878 31.7365854,36.0292727 31.9414634,35.6878049 C32.0780466,35.3463371 32.2487805,34.8682927 32.4536585,34.2536585 C32.6585366,33.6390244 32.7951198,33.058541 32.8634146,32.5121951 C33.0682927,32.2390222 33.3073149,31.8463447 33.5804878,31.3341496 C33.8536607,30.8219479 34.0585388,30.1219534 34.195122,29.2341463 C34.4,28.4146276 34.4853669,27.8170721 34.4512228,27.4414667 C34.4170721,27.0658548 34.3317051,26.7073214 34.195122,26.3658537 C34.195122,26.3658537 34.1780499,26.3487816 34.1438992,26.3146309 C34.109755,26.2804867 34.0926829,26.2634146 34.0926829,26.2634146 C34.0926829,26.0585366 34.109755,25.546348 34.1438992,24.7268293 C34.1780499,23.9073105 34.2634168,23.0878114 34.4,22.2682927 C34.5365832,21.7902417 34.502439,21.056103 34.297561,20.0658569 C34.0926829,19.0756043 33.6487827,18.1024434 32.9658537,17.1463415 C32.6926807,16.8731685 32.3853702,16.565858 32.0439024,16.2243902 C31.7024347,15.8829225 31.2926851,15.6097561 30.8146341,15.404878 C30.3365832,15.1317051 29.7902439,14.8926829 29.1756098,14.6878049 C28.5609756,14.4829268 27.843909,14.3463436 27.0243902,14.2780488 L25.2829268,14.2780488 C24.4634081,14.3463436 23.7463415,14.4829268 23.1317073,14.6878049 C22.5170732,14.8926829 21.9707339,15.1317051 21.4926829,15.404878 C21.014632,15.6097561 20.6048824,15.8829225 20.2634146,16.2243902 C19.9219468,16.565858 19.6487805,16.8731685 19.4439024,17.1463415 C18.6926786,18.1024434 18.2317062,19.0756043 18.0609789,20.0658569 C17.890245,21.056103 17.8390222,21.7902417 17.9073171,22.2682927 C18.0439003,23.0878114 18.1463393,23.9073105 18.2146341,24.7268293 C18.282929,25.546348 18.282929,26.0585366 18.2146341,26.2634146 L18.2146341,26.3146309 C18.2146341,26.3487816 18.18049,26.3658537 18.1121951,26.3658537 C18.0439003,26.7073214 17.992684,27.0658548 17.9585333,27.4414667 C17.9243892,27.8170721 17.9756119,28.4146276 18.1121951,29.2341463 C18.3170732,30.1219534 18.5390233,30.8219479 18.7780455,31.3341496 C19.0170743,31.8463447 19.2390244,32.2390222 19.4439024,32.5121951 C19.5121973,33.058541 19.6487805,33.6390244 19.8536585,34.2536585 C20.0585366,34.8682927 20.2292705,35.3463371 20.3658537,35.6878049 C20.5024368,35.9609778 20.6048759,36.302439 20.6731707,36.7121951 C20.7414656,37.1219512 20.7756098,37.5658515 20.7756098,38.0439024 C20.7756098,38.5902483 20.7585377,38.8975588 20.7243935,38.9658537 C20.6902428,39.0341485 20.6390266,39.1024368 20.5707317,39.1707317 C19.8195078,39.3756098 19.0000022,39.631704 18.1121951,39.9390277 C17.2243881,40.2463447 16.3365876,40.5365832 15.4487805,40.8097561 C14.6292617,41.1512239 13.8439068,41.4585344 13.0926829,41.7317073 C12.341459,42.0048802 11.7609756,42.2439024 11.3512195,42.4487805 C10.5999963,41.6292617 9.95122192,40.7414678 9.40487805,39.7853659 C8.85853353,38.8292639 8.38048977,37.8048802 7.97073171,36.7121951 C7.56097364,35.6877983 7.25365985,34.6121984 7.04878049,33.4853626 C6.84390113,32.3585333 6.74146341,31.2146385 6.74146341,30.0536585 C6.74146341,27.3902308 7.25365329,24.8975697 8.27804878,22.5756098 C9.30244427,20.2536498 10.6682839,18.204889 12.3756098,16.4292683 C14.1512304,14.7219425 16.1999913,13.3561041 18.5219512,12.3317073 C20.8439112,11.3073105 23.3365723,10.795122 26,10.795122 Z M12.5804878,43.7804878 C13.0585388,43.5756098 13.6560943,43.3536596 14.373174,43.1146309 C15.0902472,42.8756087 15.8243859,42.6195144 16.5756098,42.3463415 C17.3268336,42.0731685 18.0951165,41.8000022 18.8804911,41.5268293 C19.6658591,41.2536564 20.3999978,41.0146341 21.0829268,40.8097561 C21.8341507,40.604878 22.2609723,40.2292727 22.3634179,39.6829268 C22.4658569,39.136581 22.5170732,38.5902483 22.5170732,38.0439024 C22.5170732,37.6341463 22.5000011,37.1561019 22.4658504,36.6097561 C22.4317062,36.0634103 22.278051,35.5170775 22.004878,34.9707317 C21.8,34.6292639 21.6292661,34.1853702 21.4926829,33.6390244 C21.3560997,33.0926786 21.2536607,32.5463458 21.1853659,32 C21.1853659,31.9317051 21.1512217,31.8463447 21.0829268,31.7439057 C21.014632,31.6414601 20.9463436,31.5560997 20.8780488,31.4878049 C20.7414656,31.3512217 20.5707317,31.0780488 20.3658537,30.6682927 C20.1609756,30.2585366 19.9902417,29.643909 19.8536585,28.8243902 C19.7170754,28.2097561 19.6487805,27.8 19.6487805,27.595122 C19.6487805,27.3902439 19.6829246,27.21951 19.7512195,27.0829268 C19.8195144,27.014632 19.8536585,26.9463436 19.8536585,26.8780488 L19.8536585,26.6731707 C19.9902417,26.3317029 20.0243924,25.648787 19.9560976,24.6243902 C19.8878027,23.5999934 19.7853637,22.7121995 19.6487805,21.9609756 C19.5804856,21.6878027 19.6146363,21.1756141 19.7512195,20.4243902 C19.8878027,19.6731664 20.2292639,18.9219556 20.7756098,18.1707317 C21.0487827,17.8975588 21.3390211,17.6243924 21.6463382,17.3512195 C21.9536618,17.0780466 22.3121951,16.8731685 22.7219512,16.7365854 C23.063419,16.5317073 23.4560965,16.3780521 23.8999967,16.2756065 C24.3439035,16.1731675 24.8048759,16.0878071 25.2829268,16.0195122 L26.9219512,16.0195122 C27.4682971,16.0878071 27.9634135,16.1731675 28.4073138,16.2756065 C28.8512206,16.3780521 29.2780488,16.5317073 29.6878049,16.7365854 C30.0292727,16.8731685 30.3707273,17.0780466 30.7121951,17.3512195 C31.0536629,17.6243924 31.3268293,17.8975588 31.5317073,18.1707317 C32.1463415,18.9219556 32.5048748,19.6731664 32.6073204,20.4243902 C32.7097594,21.1756141 32.7609756,21.6878027 32.7609756,21.9609756 C32.6243924,22.7121995 32.5048813,23.5999934 32.4024423,24.6243902 C32.2999967,25.648787 32.3170754,26.3317029 32.4536585,26.6731707 C32.4536585,26.7414656 32.4707306,26.8097539 32.5048748,26.8780488 C32.5390255,26.9463436 32.5560976,27.014632 32.5560976,27.0829268 C32.6243924,27.21951 32.6756087,27.3902439 32.7097528,27.595122 C32.7439035,27.8 32.6926807,28.2097561 32.5560976,28.8243902 C32.3512195,29.643909 32.1463415,30.2585366 31.9414634,30.6682927 C31.7365854,31.0780488 31.5658515,31.3512217 31.4292683,31.4878049 C31.3609734,31.5560997 31.2926851,31.6414601 31.2243902,31.7439057 C31.1560954,31.8463447 31.1219512,31.9317051 31.1219512,32 C31.1219512,32.5463458 31.0365843,33.0926786 30.8658504,33.6390244 C30.695123,34.1853702 30.5073171,34.6292639 30.302439,34.9707317 C30.1658558,35.3804878 29.995122,35.8414601 29.7902439,36.3536553 C29.5853659,36.8658569 29.4829268,37.4292683 29.4829268,38.0439024 C29.4829268,38.5219534 29.5512217,39.034142 29.6878049,39.5804878 C29.8243881,40.1268336 30.2682883,40.5365832 31.0195122,40.8097561 C31.6341463,41.0146341 32.3341409,41.2365843 33.1195089,41.4756065 C33.9048835,41.7146352 34.6731664,41.9707295 35.4243902,42.2439024 C36.1756141,42.5170754 36.9097528,42.7731696 37.626826,43.0121984 C38.3439057,43.2512206 38.9756054,43.4731707 39.5219512,43.6780488 C38.6341442,44.5658578 37.6780553,45.351216 36.6536585,46.0341463 C35.6292617,46.7170767 34.5707339,47.2975588 33.4780488,47.7756098 C32.3170688,48.2536607 31.1048857,48.6292668 29.8414601,48.902439 C28.5780411,49.1756113 27.2975697,49.3121951 26,49.3121951 C24.7024303,49.3121951 23.4390309,49.1756113 22.2097561,48.902439 C20.9804812,48.6292668 19.7853702,48.2536607 18.6243902,47.7756098 C17.4634103,47.2975588 16.3878103,46.7341494 15.3975643,46.0853659 C14.4073116,45.4365823 13.4682949,44.6682968 12.5804878,43.7804878 Z" id="Page-1"></path>
                            </g>
                        </g>
                    </g>
                </g>
            </g>
        </g>
    </g>
</svg>