<?xml version="1.0" encoding="UTF-8"?>
<svg width="70px" height="70px" viewBox="0 0 70 70" version="1.1" xmlns="http://www.w3.org/2000/svg" xmlns:xlink="http://www.w3.org/1999/xlink">
    <!-- Generator: Sketch 41.2 (35397) - http://www.bohemiancoding.com/sketch -->
    <title>feature-icon-1</title>
    <desc>Created with Sketch.</desc>
    <defs>
        <path d="M0.088629284,4.08154827 C0.088629284,6.29630237 1.89740012,8.09794171 4.12092095,8.09794171 C6.34444178,8.09794171 8.15321262,6.29630237 8.15321262,4.08154827 C8.15321262,1.86794171 6.34444178,0.065154827 4.12092095,0.065154827 C1.89740012,0.065154827 0.088629284,1.86794171 0.088629284,4.08154827 Z M2.39279595,4.08154827 C2.39279595,3.13253188 3.16814803,2.36023679 4.12092095,2.36023679 C5.07369387,2.36023679 5.84904595,3.13253188 5.84904595,4.08154827 C5.84904595,5.03056466 5.07369387,5.80285974 4.12092095,5.80285974 C3.16814803,5.80285974 2.39279595,5.03056466 2.39279595,4.08154827 Z" id="path-1"></path>
        <path d="M21.7997208,14.3454098 C21.7997208,15.4240984 21.9241458,16.4832787 22.1557146,17.5080328 C21.1280563,17.8431148 20.2156063,18.1655738 19.4944021,18.4490164 C14.4425167,16.4396721 11.1533188,15.7477049 8.21205,16.0736066 C7.51273542,16.1504918 6.96319167,16.6657377 6.84452708,17.3542623 C6.72471042,18.0519672 7.07724792,18.7278689 7.72011042,19.0354098 C9.28463958,19.7859016 9.95054375,21.6036066 10.6556188,23.5291803 C10.8318875,24.0122951 11.0139167,24.5057377 11.2109229,24.9888525 C8.20628958,28.0872131 7.65098542,30.5991803 7.1129625,34.3160656 L5.6613375,34.3160656 C2.06338125,34.3160656 0,36.8670492 0,41.312623 L0,45.4518033 C0,49.9765574 2.11637708,52.6790164 5.6613375,52.6790164 L6.37217292,52.6790164 C7.21549792,54.8031148 8.47011667,56.7436066 10.0427104,58.4890164 L8.45168333,62.4503279 C7.8733375,63.8904918 8.04845417,65.5177049 8.92173333,66.8018033 C9.7950125,68.0859016 11.2466375,68.852459 12.8042542,68.852459 L20.5704479,68.852459 C21.5508708,68.852459 22.4206938,68.2660656 22.7870562,67.3572131 L23.2098708,66.304918 C26.8861687,67.3790164 30.9726083,67.9562295 35.3274833,67.9562295 C38.8920292,67.9562295 42.22155,67.5063934 45.2538333,66.6629508 L45.2595938,66.6813115 C45.6524542,67.9791803 46.8298833,68.852459 48.1927979,68.852459 L55.1248833,68.852459 C56.7781229,68.852459 58.2712229,68.082459 59.2263,66.7386885 C60.1813771,65.394918 60.4129458,63.7355738 59.86225,62.1829508 L58.5131604,58.3742623 C61.5650292,54.6206557 63.2862417,49.9432787 63.2862417,44.6439344 C63.2862417,44.6083607 63.2827854,44.5727869 63.2827854,44.5406557 C66.5466375,43.9932787 69.0443542,41.1645902 69.0443542,37.7586885 C69.0443542,35.9972131 68.3715375,34.3929508 67.2736021,33.1742623 C67.3818979,31.8465574 67.1641542,30.4981967 66.6065458,29.2554098 C66.346175,28.6759016 65.6641417,28.4154098 65.0846438,28.6770492 C64.5039938,28.9352459 64.2436229,29.6145902 64.5039938,30.1929508 C64.6860229,30.5991803 64.8104479,31.0214754 64.8933979,31.4506557 C64.0466167,31.0822951 63.1145813,30.8745902 62.1330063,30.8745902 C62.0661854,30.8745902 62.0062771,30.9021311 61.9406083,30.9136066 C61.8104229,30.9044262 61.6883021,30.8745902 61.5569646,30.8745902 C61.2735521,30.8745902 61.0016604,30.9136066 60.7309208,30.9572131 C58.5719167,25.8460656 54.843775,21.6919672 49.8587104,18.8460656 C50.3414333,17.4036066 50.6018042,15.8865574 50.6018042,14.3454098 C50.6018042,6.43540984 44.1409208,0.00114754098 36.2007625,0.00114754098 C28.2594521,0.00114754098 21.7997208,6.43540984 21.7997208,14.3454098 Z M27.1269542,22.2829508 C27.0808708,22.2313115 27.0405479,22.1762295 26.9956167,22.1245902 C26.6949229,21.7711475 26.4115104,21.4039344 26.1534438,21.0183607 C26.1338583,20.9885246 26.1142729,20.9598361 26.0946875,20.93 C25.5244063,20.0590164 25.0624208,19.1134426 24.7283167,18.1070492 L24.6027396,17.722623 C24.2836125,16.6393443 24.1050396,15.5067213 24.1050396,14.3431148 C24.1038875,7.7 29.5302,2.29508197 36.2007625,2.29508197 C42.871325,2.29508197 48.2976375,7.7 48.2976375,14.3442623 C48.2976375,15.7855738 48.0372667,17.177541 47.5533917,18.4834426 L47.3759708,18.914918 C46.8045375,20.2908197 45.9761896,21.5622951 44.9600521,22.6318033 C44.8171938,22.5652459 44.6674229,22.5227869 44.5234125,22.4596721 C44.1870042,22.3139344 43.8459875,22.1819672 43.5015146,22.0568852 C43.2042771,21.9490164 42.9093438,21.8388525 42.6074979,21.7470492 C42.2837625,21.6472131 41.9531146,21.5703279 41.6236188,21.49 C41.0233833,21.3431148 40.4196917,21.2283607 39.8113917,21.1434426 C39.5233708,21.1032787 39.2341979,21.0527869 38.945025,21.0263934 C38.5867271,20.9931148 38.2272771,20.9862295 37.866675,20.9736066 C37.5717417,20.9655738 37.2756563,20.9563934 36.981875,20.9609836 C36.63625,20.9667213 36.2917771,20.985082 35.9473042,21.0103279 C35.6201125,21.0355738 35.2940729,21.07 34.9691854,21.1113115 C34.6581229,21.1514754 34.3482125,21.1881967 34.0394542,21.2444262 C33.5982063,21.3236066 33.1615667,21.4280328 32.7249271,21.5404918 C32.5348333,21.5898361 32.3412833,21.6242623 32.1523417,21.6793443 C31.5186958,21.8640984 30.8942667,22.0890164 30.2802063,22.3460656 C30.1396521,22.4034426 30.0037063,22.4745902 29.8643042,22.5365574 C29.3712125,22.7557377 28.8850333,22.9955738 28.4092229,23.2618033 C28.34125,23.2996721 28.2698208,23.3260656 28.203,23.365082 C27.8193563,23.0277049 27.4622104,22.6639344 27.1269542,22.2829508 Z M2.30416667,45.4495082 L2.30416667,41.3114754 C2.30416667,36.6111475 4.83068542,36.6111475 5.6613375,36.6111475 L9.1175875,36.6111475 L9.2558375,35.6219672 C9.85952917,31.3209836 10.1625271,29.1636066 13.3826,26.0721311 L13.9782271,25.5006557 L13.6245375,24.7559016 C13.3342125,24.1396721 13.0853625,23.4614754 12.8215354,22.7419672 C12.2685354,21.2306557 11.6636917,19.5793443 10.5300417,18.3262295 C12.7247604,18.4937705 15.3745521,19.2557377 19.0623708,20.747541 L19.5024667,20.9254098 L19.9391063,20.7429508 C20.6464854,20.4491803 21.6776,20.0785246 22.8573333,19.6929508 C23.0865979,20.2598361 23.3538813,20.8072131 23.654575,21.3408197 C23.6776167,21.3821311 23.7018104,21.4234426 23.7248521,21.4659016 C23.9967438,21.9363934 24.2962854,22.3908197 24.622325,22.8291803 C24.6799292,22.9083607 24.7352292,22.9886885 24.7951375,23.0655738 C25.1004396,23.4591803 25.4299354,23.8344262 25.7778646,24.1981967 C25.8631188,24.2877049 25.9403083,24.3818033 26.0267146,24.4690164 C26.0992958,24.5413115 26.1718771,24.612459 26.2456104,24.6813115 C25.6200292,25.1598361 25.0128813,25.6659016 24.4414479,26.2339344 C23.9909833,26.682623 23.9909833,27.4067213 24.4414479,27.8565574 C24.8919125,28.3052459 25.6200292,28.3052459 26.0704938,27.8565574 C26.8228042,27.1072131 27.6338708,26.4531148 28.4864125,25.887377 L28.6707458,25.7691803 C29.0221313,25.5431148 29.3804292,25.3342623 29.7444875,25.1380328 C29.8919542,25.0588525 30.041725,24.9865574 30.1903438,24.9119672 C30.4806688,24.767377 30.77445,24.6319672 31.0693833,24.5057377 C31.1868958,24.4563934 31.3032563,24.4036066 31.4207688,24.3565574 C31.838975,24.1913115 32.2629417,24.0432787 32.6915167,23.9147541 C32.7617938,23.8929508 32.834375,23.8757377 32.9058042,23.855082 C33.3240104,23.7368852 33.7445208,23.632459 34.1696396,23.5486885 C34.2099625,23.5406557 34.2502854,23.5314754 34.2894563,23.5234426 C37.2618313,22.96 40.3643917,23.2457377 43.2019729,24.3795082 C43.2284708,24.3909836 43.2572729,24.4013115 43.286075,24.4116393 C45.1777958,25.1816393 46.9520042,26.3291803 48.4865792,27.8565574 C48.7112354,28.0803279 49.0061688,28.1927869 49.3011021,28.1927869 C49.5960354,28.1927869 49.8909688,28.0803279 50.115625,27.8565574 C50.5660896,27.4067213 50.5660896,26.682623 50.115625,26.2339344 C49.1617,25.2837705 48.1202167,24.4736066 47.0291938,23.7781967 C47.1213604,23.6714754 47.2008542,23.5555738 47.2907167,23.4465574 C47.4474,23.2560656 47.6040833,23.0655738 47.75155,22.8659016 C47.8955604,22.6719672 48.0303542,22.4734426 48.1663,22.2737705 C48.2769,22.107377 48.3828917,21.9409836 48.4865792,21.7711475 C48.622525,21.5485246 48.7538625,21.3247541 48.8771354,21.0963934 C48.9036333,21.0459016 48.9358917,21 48.9612375,20.9506557 C53.3725646,23.532623 56.6825,27.2472131 58.6110875,31.7914754 C58.3737583,31.9532787 58.1571667,32.1403279 57.9532479,32.3365574 C57.9163813,32.3721311 57.8795146,32.4077049 57.8438,32.4444262 C57.4106167,32.887377 57.0615354,33.4014754 56.8115333,33.9683607 C56.7977083,34.0016393 56.7815792,34.032623 56.7677542,34.0659016 C56.6525458,34.3436066 56.5626833,34.6327869 56.4981667,34.9311475 C56.4866458,34.9862295 56.4762771,35.0401639 56.4670604,35.0952459 C56.4106083,35.4016393 56.3714375,35.714918 56.3714375,36.0362295 C56.3714375,36.3781967 56.4083042,36.7098361 56.4728208,37.0334426 C56.4947104,37.142459 56.5338813,37.2434426 56.5626833,37.3490164 C56.6179833,37.5578689 56.6744354,37.7667213 56.7550813,37.9652459 C56.8034688,38.0857377 56.8691375,38.1947541 56.9244375,38.3095082 C57.0085396,38.4816393 57.0960979,38.652623 57.1997854,38.8132787 C57.2735188,38.9268852 57.3587729,39.0313115 57.4394188,39.1391803 C57.5511708,39.284918 57.6629229,39.4283607 57.7896521,39.5603279 C57.8841229,39.6590164 57.9855063,39.7508197 58.0880417,39.8437705 C58.2216833,39.9665574 58.3599333,40.0801639 58.5074,40.1891803 C58.6191521,40.2706557 58.7343604,40.347541 58.853025,40.4198361 C59.0074042,40.5139344 59.1652396,40.6 59.3311396,40.6791803 C59.4567167,40.7388525 59.5845979,40.7962295 59.7159354,40.8444262 C59.8899,40.9121311 60.0684729,40.9637705 60.2505021,41.0108197 C60.3864479,41.0463934 60.5212417,41.0819672 60.6606438,41.1072131 C60.7182479,41.117541 60.7712438,41.1381967 60.8276958,41.1462295 C60.9302313,42.3006557 60.982075,43.4722951 60.982075,44.6393443 C60.9786188,50.0465574 58.9670813,54.7377049 55.4451625,58.3077049 C55.4359458,58.3180328 55.4267292,58.3295082 55.4175125,58.3386885 C54.9532229,58.8091803 54.4543708,59.2544262 53.9370854,59.6836066 C53.8126604,59.7880328 53.6801708,59.8890164 53.5511375,59.9911475 C53.1674938,60.2940984 52.770025,60.5855738 52.3621875,60.8678689 C52.1836146,60.9918033 52.0073458,61.1157377 51.8241646,61.2339344 C51.3057271,61.572459 50.7677042,61.8937705 50.2112479,62.1967213 C50.0223063,62.2988525 49.8241479,62.3906557 49.63175,62.4881967 C49.2123917,62.7004918 48.7838167,62.9070492 48.3471771,63.1009836 C48.1086958,63.2042623 47.8702146,63.307541 47.627125,63.4062295 C47.1063833,63.617377 46.5729688,63.8159016 46.0280333,63.9983607 C45.9070646,64.0385246 45.7918563,64.0867213 45.6697354,64.1257377 L45.6213479,64.1406557 C42.5291563,65.1263934 39.06945,65.66 35.3274833,65.66 C30.5820521,65.66 26.1453792,64.8957377 22.25825,63.5255738 C22.0289854,63.4452459 21.7985688,63.3672131 21.5739125,63.2845902 C14.9978208,60.802459 10.1187479,56.5255738 8.26389375,51.1539344 L7.99661042,50.3793443 L5.6613375,50.3793443 C2.88596875,50.3793443 2.30416667,47.6998361 2.30416667,45.4495082 Z M58.6756042,36.037377 C58.6756042,35.8583607 58.6986458,35.685082 58.7286,35.5152459 C58.7378167,35.4670492 58.7516417,35.4211475 58.7620104,35.3729508 C58.7919646,35.2455738 58.8311354,35.1227869 58.8760667,35.0022951 C58.8945,34.9609836 58.908325,34.917377 58.9256063,34.8760656 C59.0638563,34.5708197 59.2527979,34.2931148 59.4832146,34.0532787 C59.5235375,34.0119672 59.5673167,33.9729508 59.6110958,33.9339344 C59.6859813,33.865082 59.765475,33.8008197 59.8472729,33.74 C59.9094854,33.6940984 59.9716979,33.6493443 60.0373667,33.6080328 C60.1041875,33.5667213 60.1756167,33.5322951 60.2458938,33.4955738 C60.3253875,33.4554098 60.4025771,33.4118033 60.4866792,33.3762295 L60.4970479,33.3727869 C60.8253917,33.2431148 61.1813854,33.1662295 61.5546604,33.1662295 C63.1422313,33.1662295 64.4348688,34.4537705 64.4348688,36.035082 C64.4360208,37.4763934 63.3657354,38.6560656 61.9786271,38.8637705 L61.783925,38.8786885 C61.7182563,38.8821311 61.6525875,38.8913115 61.5569646,38.9062295 C59.9693938,38.9062295 58.6756042,37.6186885 58.6756042,36.037377 Z M63.1030604,40.9396721 C64.9371771,40.3636066 66.3277417,38.8201639 66.6526292,36.8980328 C66.705625,37.1780328 66.7413396,37.464918 66.7413396,37.7586885 C66.7401875,39.9172131 65.2309583,41.7211475 63.2125083,42.2077049 C63.1871625,41.7831148 63.1410792,41.3619672 63.1030604,40.9396721 Z M10.8307354,65.5142623 C10.3802708,64.8521311 10.2927125,64.0431148 10.5911021,63.3018033 L11.8123104,60.2596721 C14.3134833,62.4755738 17.4195,64.2783607 20.9886542,65.5796721 L20.5704479,66.557377 L12.8042542,66.557377 C12.0001,66.557377 11.2812,66.1763934 10.8307354,65.5142623 Z M47.4669854,66.0191803 L47.4474,65.9595082 C51.0995042,64.6455738 54.2458437,62.7211475 56.7481687,60.2952459 L57.6894208,62.9460656 C57.9866583,63.7872131 57.8610812,64.6857377 57.3437958,65.4132787 C56.8288146,66.1408197 56.0189,66.557377 55.1237312,66.557377 L48.1927979,66.557377 C47.8540854,66.557377 47.5626083,66.3416393 47.4669854,66.0191803 Z" id="path-3"></path>
        <path d="M0.04493125,10.4059016 C0.0460833333,13.3952459 1.41360625,16.1665574 3.79726667,18.0072131 C4.00809792,18.1690164 4.25579583,18.2470492 4.50234167,18.2470492 C4.8456625,18.2470492 5.18667917,18.0944262 5.41363958,17.8029508 C5.80304375,17.3014754 5.71202917,16.5808197 5.20856875,16.1929508 C3.39173333,14.7906557 2.34909792,12.6803279 2.34909792,10.4059016 C2.34909792,6.36655738 5.6475125,3.08229508 9.70284583,3.08229508 C13.7581792,3.08229508 17.0565938,6.36655738 17.0565938,10.4059016 C17.0565938,12.4622951 16.2155729,14.3706557 14.6879104,15.777541 C14.2213167,16.2078689 14.1913625,16.9331148 14.6233938,17.3990164 C15.0565771,17.8637705 15.7858458,17.8913115 16.2524396,17.4621311 C18.2271104,15.6432787 19.3596083,13.0704918 19.3596083,10.4059016 C19.3596083,5.10196721 15.0266229,0.786065574 9.70169375,0.786065574 C4.37676458,0.786065574 0.04493125,5.10196721 0.04493125,10.4059016 Z" id="path-5"></path>
        <path d="M0.334104167,0.836302368 C0.0760375,1.41581056 0.339864583,2.09285974 0.921666667,2.34761384 C4.82262083,4.06892532 8.73394375,4.89859745 13.0335187,4.89859745 C14.0450479,4.89859745 15.0796187,4.85384335 16.1395354,4.76204007 C16.7731812,4.70695811 17.2432312,4.15040073 17.1879312,3.51925319 C17.1326312,2.88810565 16.5715667,2.40728597 15.940225,2.47499089 C10.7074625,2.9259745 6.36410833,2.23859745 1.85370208,0.249908925 C1.70162708,0.183351548 1.54263958,0.151220401 1.38710833,0.151220401 C0.944708333,0.151220401 0.524197917,0.405974499 0.334104167,0.836302368 Z" id="path-7"></path>
    </defs>
    <g id="Dashboard" stroke="none" stroke-width="1" fill="none" fill-rule="evenodd">
        <g id="Home-Dashboard" transform="translate(-340.000000, -1772.000000)">
            <g id="feature-icon-1" transform="translate(340.000000, 1772.000000)">
                <g id="Page-1">
                    <g id="Group-3" transform="translate(12.494425, 29.834918)">
                        <mask id="mask-2" fill="white">
                            <use xlink:href="#path-1"></use>
                        </mask>
                        <g id="Clip-2"></g>
                        <polygon id="Fill-1" fill="#4F545A" mask="url(#mask-2)" points="-5.67178738 13.8356466 13.9136293 13.8356466 13.9136293 -5.67255009 -5.67178738 -5.67255009"></polygon>
                    </g>
                    <g id="Group-6" transform="translate(0.000000, 0.174171)">
                        <mask id="mask-4" fill="white">
                            <use xlink:href="#path-3"></use>
                        </mask>
                        <g id="Clip-5"></g>
                        <polygon id="Fill-4" fill="#4F545A" mask="url(#mask-4)" points="-5.76041667 74.5901639 74.8047708 74.5901639 74.8047708 -5.73655738 -5.76041667 -5.73655738"></polygon>
                    </g>
                    <g id="Group-9" transform="translate(26.497917, 3.616794)">
                        <mask id="mask-6" fill="white">
                            <use xlink:href="#path-5"></use>
                        </mask>
                        <g id="Clip-8"></g>
                        <polygon id="Fill-7" fill="#FF4419" mask="url(#mask-6)" points="-5.7166375 23.9847541 25.120025 23.9847541 25.120025 -4.95163934 -5.7166375 -4.95163934"></polygon>
                    </g>
                    <g id="Group-12" transform="translate(20.737500, 58.523443)">
                        <mask id="mask-8" fill="white">
                            <use xlink:href="#path-7"></use>
                        </mask>
                        <g id="Clip-11"></g>
                        <polygon id="Fill-10" fill="#4F545A" mask="url(#mask-8)" points="-5.52539167 10.6363024 22.9529562 10.6363024 22.9529562 -5.58648452 -5.52539167 -5.58648452"></polygon>
                    </g>
                </g>
            </g>
        </g>
    </g>
</svg>