<?xml version="1.0" encoding="UTF-8"?>
<svg width="70px" height="70px" viewBox="0 0 70 70" version="1.1" xmlns="http://www.w3.org/2000/svg" xmlns:xlink="http://www.w3.org/1999/xlink">
    <!-- Generator: Sketch 41.2 (35397) - http://www.bohemiancoding.com/sketch -->
    <title>feature-icon-3</title>
    <desc>Created with Sketch.</desc>
    <defs>
        <polygon id="path-1" points="34.8630625 69.7635135 0 69.7635135 0 0.0373648649 34.8630625 0.0373648649 69.726125 0.0373648649 69.726125 69.7635135 34.8630625 69.7635135"></polygon>
    </defs>
    <g id="Dashboard" stroke="none" stroke-width="1" fill="none" fill-rule="evenodd">
        <g id="Home-Dashboard" transform="translate(-940.000000, -1770.000000)">
            <g id="feature-icon-3" transform="translate(940.000000, 1770.000000)">
                <g id="Group-3" transform="translate(0.000000, 0.199122)">
                    <mask id="mask-2" fill="white">
                        <use xlink:href="#path-1"></use>
                    </mask>
                    <g id="Clip-2"></g>
                    <path d="M34.8630507,0.0373648649 C34.0795709,0.0373648649 33.4441318,0.672804054 33.4441318,1.45628378 C33.4441318,2.23976351 34.0795709,2.8752027 34.8630507,2.8752027 C43.1112264,2.8752027 50.6404831,6.01006757 56.3234899,11.1503378 C56.8224764,11.6015541 57.3060912,12.0693243 57.7759899,12.5508108 C63.4105169,18.3258108 66.8882872,26.2140541 66.8882872,34.9004392 C66.8882872,43.5868243 63.4105169,51.4750676 57.7759899,57.2500676 C57.3060912,57.7317905 56.8222399,58.1995608 56.3230169,58.6510135 C50.6400101,63.7908108 43.1109899,66.9256757 34.8630507,66.9256757 C26.6151115,66.9256757 19.0860912,63.7908108 13.4030845,58.6510135 C12.6018682,57.9264189 11.8373074,57.1620946 11.1127128,56.3608784 C5.97267905,50.6778716 2.83781419,43.1486149 2.83781419,34.9004392 C2.83781419,26.7891892 5.86389527,19.1880405 11.1127128,13.4002703 C11.8243007,12.6156081 12.5768007,11.865 13.3680845,11.1503378 C15.3860236,9.32844595 17.6536926,7.74138514 20.1446047,6.44993243 C20.840348,6.08929054 21.1120709,5.23297297 20.7511926,4.53722973 C20.3905507,3.84148649 19.5339966,3.57 18.8384899,3.93064189 C7.21872635,9.95489865 -2.36486487e-05,21.822027 -2.36486487e-05,34.9004392 C-2.36486487e-05,54.1241892 15.6395372,69.7635135 34.8630507,69.7635135 C54.0865642,69.7635135 69.726125,54.1239527 69.726125,34.9004392 C69.726125,15.6769257 54.0868007,0.0373648649 34.8630507,0.0373648649" id="Fill-1" fill="#4F545A" mask="url(#mask-2)"></path>
                </g>
                <path d="M48.5300777,17.1396182 C44.5746047,14.125125 39.8486588,12.5319155 34.8630507,12.5319155 C22.4191318,12.5319155 12.2951453,22.655902 12.2951453,35.0998209 C12.2951453,47.5437399 22.4191318,57.6674899 34.8630507,57.6674899 C40.8910912,57.6674899 46.5584899,55.3203615 50.8211588,51.0576926 C51.3750101,50.5036047 51.3750101,49.6051926 50.8211588,49.0511047 C50.2668345,48.4970169 49.3681858,48.4970169 48.8143345,49.0511047 C45.0877804,52.7776588 40.133152,54.829652 34.8630507,54.829652 C23.9839628,54.829652 15.1329831,45.9791453 15.1329831,35.0998209 C15.1329831,24.2204966 23.9837264,15.3697534 34.8630507,15.3697534 C43.4560236,15.3697534 51.1401791,21.0409358 53.6937601,29.2072872 C53.7330169,29.332625 53.7751115,29.4567804 53.8117669,29.5835372 C54.0302804,30.3360372 54.8175439,30.7685709 55.5705169,30.5500574 C56.1841993,30.3715101 56.5850439,29.8148209 56.5930845,29.2072872 C56.5952128,29.0698885 56.5770034,28.930125 56.5368007,28.7915439 C55.201125,24.1944831 52.357848,20.0562061 48.5300777,17.1396182" id="Fill-4" fill="#9012FE"></path>
                <path d="M51.5004662,30.8051318 C50.9459054,30.2510439 50.0474932,30.2510439 49.4938784,30.8051318 C48.9397905,31.3592196 48.9397905,32.2576318 49.4938784,32.8117196 L54.8313784,38.1496926 C55.0974257,38.4157399 55.4580676,38.5649628 55.8345541,38.5649628 C56.211277,38.5649628 56.5719189,38.4157399 56.8379662,38.1496926 L57.7758716,37.2115507 L62.1757027,32.8117196 C62.7295541,32.2576318 62.7295541,31.3592196 62.1757027,30.8051318 C61.6213784,30.2510439 60.7229662,30.2510439 60.1688784,30.8051318 L57.7758716,33.1981385 L55.8345541,35.1394561 L51.5004662,30.8051318 Z" id="Fill-6" fill="#9012FE"></path>
                <path d="M34.7635135,39.9662162 C35.5455743,39.9662162 36.1824324,39.3305405 36.1824324,38.5461149 L36.1824324,36.6554054 L36.1824324,25.541723 C36.1824324,24.7572973 35.5469932,24.1216216 34.7635135,24.1216216 C33.9814527,24.1216216 33.3445946,24.7572973 33.3445946,25.541723 L33.3445946,36.6554054 L33.3445946,38.5461149 C33.3445946,39.3305405 33.9800338,39.9662162 34.7635135,39.9662162" id="Fill-8" fill="#4F545A"></path>
                <path d="M30.5640338,38.2533209 C30.0097095,37.6992331 29.1112973,37.6992331 28.5574459,38.2533209 C28.0033581,38.8076453 28.0033581,39.7060574 28.5574459,40.2599088 L33.8949459,45.5978818 C34.1609932,45.8639291 34.5218716,46.013152 34.8983581,46.013152 C35.2748446,46.013152 35.635723,45.8639291 35.9017703,45.5978818 L41.2392703,40.2599088 C41.7933581,39.7060574 41.7933581,38.8076453 41.2392703,38.2533209 C40.6849459,37.6992331 39.7865338,37.6992331 39.2326824,38.2533209 L37.3649122,40.1210912 L36.3373784,41.148625 L34.8983581,42.5876453 L33.4593378,41.148625 L32.1622095,39.8514966 L30.5640338,38.2533209 Z" id="Fill-10" fill="#4F545A"></path>
            </g>
        </g>
    </g>
</svg>