<?xml version="1.0" encoding="UTF-8"?>
<svg width="70px" height="65px" viewBox="0 0 70 65" version="1.1" xmlns="http://www.w3.org/2000/svg" xmlns:xlink="http://www.w3.org/1999/xlink">
    <!-- Generator: Sketch 41.2 (35397) - http://www.bohemiancoding.com/sketch -->
    <title>feature-icon-4</title>
    <desc>Created with Sketch.</desc>
    <defs></defs>
    <g id="Dashboard" stroke="none" stroke-width="1" fill="none" fill-rule="evenodd">
        <g id="Home-Dashboard" transform="translate(-1240.000000, -1776.000000)">
            <g id="feature-icon-4" transform="translate(1240.000000, 1776.000000)">
                <path d="M23.7288136,54.5762712 C25.6911864,54.5762712 27.2881356,56.1732203 27.2881356,58.1355932 C27.2881356,60.0979661 25.6911864,61.6949153 23.7288136,61.6949153 C21.7664407,61.6949153 20.1694915,60.0979661 20.1694915,58.1355932 C20.1694915,56.1732203 21.7664407,54.5762712 23.7288136,54.5762712 L23.7288136,54.5762712 Z M52.2033898,54.5762712 C54.1657627,54.5762712 55.7627119,56.1732203 55.7627119,58.1355932 C55.7627119,60.0979661 54.1657627,61.6949153 52.2033898,61.6949153 C50.2410169,61.6949153 48.6440678,60.0979661 48.6440678,58.1355932 C48.6440678,56.1732203 50.2410169,54.5762712 52.2033898,54.5762712 L52.2033898,54.5762712 Z M5.93220339,5.93220339 L6.78881356,5.93220339 C6.37711864,6.63813559 5.62016949,7.11864407 4.74576271,7.11864407 C3.43711864,7.11864407 2.37288136,6.05440678 2.37288136,4.74576271 C2.37288136,3.43711864 3.43711864,2.37288136 4.74576271,2.37288136 C5.62016949,2.37288136 6.37711864,2.85338983 6.78881356,3.55932203 L5.93220339,3.55932203 C5.27610169,3.55932203 4.74576271,4.08966102 4.74576271,4.74576271 C4.74576271,5.40186441 5.27610169,5.93220339 5.93220339,5.93220339 L5.93220339,5.93220339 Z M13.0508475,45.0847458 L70,45.0847458 L70,14.2372881 L64.1377966,14.2372881 L59.3220339,14.2372881 C58.6659322,14.2372881 58.1355932,14.7676271 58.1355932,15.4237288 C58.1355932,16.0798305 58.6659322,16.6101695 59.3220339,16.6101695 L64.1377966,16.6101695 L67.6271186,16.6101695 L67.6271186,42.7118644 L64.1377966,42.7118644 L14.2372881,42.7118644 L13.0508475,42.7118644 L13.0508475,16.6101695 L14.2372881,16.6101695 L21.3559322,16.6101695 C22.0120339,16.6101695 22.5423729,16.0798305 22.5423729,15.4237288 C22.5423729,14.7676271 22.0120339,14.2372881 21.3559322,14.2372881 L14.2372881,14.2372881 L13.0508475,14.2372881 L13.0508475,7.14711864 L13.0508475,4.74576271 C13.0508475,4.08966102 12.5205085,3.55932203 11.8644068,3.55932203 L9.32305085,3.55932203 C8.79271186,1.51864407 6.95135593,0 4.74576271,0 C2.12847458,0 0,2.12847458 0,4.74576271 C0,7.36305085 2.12847458,9.49152542 4.74576271,9.49152542 C6.17186441,9.49152542 7.44016949,8.85084746 8.30508475,7.84949153 C8.49254237,7.63237288 8.65745763,7.39627119 8.80457627,7.14711864 C9.02644068,6.77101695 9.21033898,6.36644068 9.32305085,5.93220339 L10.6779661,5.93220339 L10.6779661,7.14711864 L10.6779661,14.2372881 L10.6779661,15.4237288 L10.6779661,43.8983051 L10.6779661,45.0847458 L10.6779661,49.8245763 L10.6779661,52.2033898 C10.6779661,52.8594915 11.2083051,53.3898305 11.8644068,53.3898305 L20.2062712,53.3898305 C18.7528814,54.4718644 17.7966102,56.1886441 17.7966102,58.1355932 C17.7966102,61.4066102 20.4577966,64.0677966 23.7288136,64.0677966 C26.9998305,64.0677966 29.6610169,61.4066102 29.6610169,58.1355932 C29.6610169,56.1886441 28.7047458,54.4718644 27.2513559,53.3898305 L48.6808475,53.3898305 C47.2274576,54.4718644 46.2711864,56.1886441 46.2711864,58.1355932 C46.2711864,61.4066102 48.9323729,64.0677966 52.2033898,64.0677966 C55.4744068,64.0677966 58.1355932,61.4066102 58.1355932,58.1355932 C58.1355932,56.1886441 57.179322,54.4718644 55.7259322,53.3898305 L62.8813559,53.3898305 C63.5374576,53.3898305 64.0677966,52.8594915 64.0677966,52.2033898 C64.0677966,51.5472881 63.5374576,51.0169492 62.8813559,51.0169492 L13.0508475,51.0169492 L13.0508475,49.8245763 L13.0508475,45.0847458 Z" id="Fill-1" fill="#50555B"></path>
                <path d="M20,28.0667019 C20,33.4638205 24.1940678,37.8797527 29.5437288,38.1182273 C29.7027119,38.1253459 29.8628814,38.1289053 29.8391525,38.1194137 C29.8498305,38.1206002 29.9708475,38.133651 30.1820339,38.133651 C31.4859322,38.133651 38.1288136,37.6661934 40.9062712,28.4606002 C43.2910169,20.5541595 48.5777966,20.6799222 49.2244068,20.7214476 C49.4094915,20.7214476 49.5945763,20.7285663 49.7761017,20.7428036 C53.5537288,21.0251765 56.5138983,24.2428036 56.5138983,28.0667019 C56.5138983,32.1172103 53.2440678,35.4107697 49.2244068,35.4107697 C46.7328814,35.4107697 44.440678,34.1483968 43.0905085,32.0341595 L42.7677966,31.5311087 L40.4933898,33.0058544 L40.8113559,33.5029731 C42.6622034,36.4002612 45.8074576,38.1300917 49.2244068,38.1300917 C54.7366102,38.1300917 59.2225424,33.6156849 59.2225424,28.0667019 C59.2225424,22.8273798 55.1613559,18.4209392 49.9766102,18.0317866 C49.7238983,18.0128036 49.4735593,18.0068714 49.3454237,18.0080578 C49.2564407,18.0021256 41.4116949,17.4089053 38.3150847,27.6716171 C35.8722034,35.764329 30.2805085,35.4321256 29.9969492,35.4107697 C29.8889831,35.4107697 29.7798305,35.4083968 29.6683051,35.403651 C25.7649153,35.2292442 22.7074576,32.0056849 22.7074576,28.0667019 C22.7074576,24.0161934 25.9784746,20.7214476 29.9969492,20.7214476 C32.4884746,20.7214476 34.7818644,21.9838205 36.1320339,24.0980578 L36.4535593,24.6011087 L38.7279661,23.1263629 L38.4123729,22.6304307 C36.5615254,19.7331426 33.4162712,18.003312 29.9969492,18.003312 C24.4847458,18.003312 20,22.5177188 20,28.0667019" id="Fill-3" fill="#467FFF"></path>
            </g>
        </g>
    </g>
</svg>