<?xml version="1.0" encoding="UTF-8"?>
<svg width="69px" height="70px" viewBox="0 0 69 70" version="1.1" xmlns="http://www.w3.org/2000/svg" xmlns:xlink="http://www.w3.org/1999/xlink">
    <!-- Generator: Sketch 41.2 (35397) - http://www.bohemiancoding.com/sketch -->
    <title>feature-icon-2</title>
    <desc>Created with Sketch.</desc>
    <defs></defs>
    <g id="Dashboard" stroke="none" stroke-width="1" fill="none" fill-rule="evenodd">
        <g id="Home-Dashboard" transform="translate(-641.000000, -1771.000000)">
            <g id="feature-icon-2" transform="translate(641.000000, 1771.000000)">
                <path d="M44.9017,4.6671 C44.2667,4.6671 43.7527,5.1881 43.7527,5.8331 C43.7527,6.4791 44.2667,7.0001 44.9017,7.0001 L61.6387,7.0001 L56.7137,12.0081 C56.6767,12.0461 56.6567,12.0991 56.6267,12.1421 C56.5827,12.1981 56.5397,12.2511 56.5087,12.3161 C56.4967,12.3421 56.4757,12.3621 56.4657,12.3891 C56.4457,12.4361 56.4467,12.4851 56.4347,12.5351 C56.4147,12.6081 56.3977,12.6781 56.3937,12.7541 C56.3917,12.7791 56.3777,12.8061 56.3777,12.8331 L56.3777,21.0001 L12.7697,21.0001 L12.7697,12.8331 C12.7697,12.8061 12.7567,12.7791 12.7557,12.7531 C12.7497,12.6771 12.7337,12.6071 12.7137,12.5331 C12.7017,12.4841 12.7027,12.4351 12.6847,12.3881 C12.6727,12.3611 12.6517,12.3411 12.6407,12.3151 C12.6087,12.2511 12.5667,12.1981 12.5237,12.1421 C12.4917,12.0991 12.4707,12.0461 12.4327,12.0081 L7.5077,7.0001 L24.2457,7.0001 C24.8817,7.0001 25.3937,6.4791 25.3937,5.8331 C25.3937,5.1881 24.8817,4.6671 24.2457,4.6671 L1.2937,4.6671 L1.2937,21.0001 L0.1467,21.0001 L0.1467,64.4681 C0.1467,67.5191 2.5877,70.0001 5.5887,70.0001 L63.5607,70.0001 C66.5597,70.0001 68.9997,67.5191 68.9997,64.4681 L68.9997,21.0001 L67.8527,21.0001 L67.8527,4.6671 L44.9017,4.6671 Z M59.0397,12.9431 L64.8837,7.0001 L65.5577,7.0001 L65.5577,21.0001 L64.9837,21.0001 L59.0397,12.9431 Z M3.5897,7.0001 L4.2627,7.0001 L10.1087,12.9431 L4.1637,21.0001 L3.5897,21.0001 L3.5897,7.0001 Z M58.6727,16.3321 L62.1137,21.0001 L58.6727,21.0001 L58.6727,16.3321 Z M10.4747,16.3321 L10.4747,21.0001 L7.0327,21.0001 L10.4747,16.3321 Z M2.4417,64.4681 L2.4417,23.3331 L66.7047,23.3331 L66.7047,64.4681 C66.7047,66.2321 65.2947,67.6671 63.5607,67.6671 L5.5887,67.6671 C3.8547,67.6671 2.4417,66.2321 2.4417,64.4681 L2.4417,64.4681 Z" id="Fill-1" fill="#4F545A"></path>
                <path d="M47.1966,31.5001 L47.1966,38.5001 C47.1966,45.5771 41.5336,51.3331 34.5736,51.3331 C27.6136,51.3331 21.9496,45.5771 21.9496,38.5001 L21.9496,31.5001 C21.9496,30.8541 21.4376,30.3331 20.8016,30.3331 C20.1686,30.3331 19.6556,30.8541 19.6556,31.5001 L19.6556,38.5001 C19.6556,46.8621 26.3486,53.6671 34.5736,53.6671 C42.7996,53.6671 49.4916,46.8621 49.4916,38.5001 L49.4916,31.5001 C49.4916,30.8541 48.9786,30.3331 48.3436,30.3331 C47.7096,30.3331 47.1966,30.8541 47.1966,31.5001" id="Fill-10" fill="#4F545A"></path>
                <path d="M16.2132,31.5001 C16.2132,32.1461 16.7262,32.6671 17.3602,32.6671 C17.9952,32.6671 18.5082,32.1461 18.5082,31.5001 C18.5082,30.2131 19.5372,29.1661 20.8022,29.1661 C22.0692,29.1661 23.0972,30.2131 23.0972,31.5001 C23.0972,32.1461 23.6112,32.6671 24.2462,32.6671 C24.8812,32.6671 25.3932,32.1461 25.3932,31.5001 C25.3932,28.9251 23.3342,26.8331 20.8022,26.8331 C18.2722,26.8331 16.2132,28.9251 16.2132,31.5001" id="Fill-19" fill="#4F545A"></path>
                <path d="M43.7527,31.5001 C43.7527,32.1461 44.2667,32.6671 44.9017,32.6671 C45.5377,32.6671 46.0487,32.1461 46.0487,31.5001 C46.0487,30.2131 47.0787,29.1661 48.3437,29.1661 C49.6097,29.1661 50.6397,30.2131 50.6397,31.5001 C50.6397,32.1461 51.1517,32.6671 51.7857,32.6671 C52.4217,32.6671 52.9337,32.1461 52.9337,31.5001 C52.9337,28.9251 50.8757,26.8331 48.3437,26.8331 C45.8127,26.8331 43.7527,28.9251 43.7527,31.5001" id="Fill-28" fill="#4F545A"></path>
                <path d="M41.7952,0.3419 L34.5742,7.6829 L27.3512,0.3419 C26.9032,-0.1141 26.1782,-0.1141 25.7282,0.3419 C25.2812,0.7979 25.2812,1.5349 25.7282,1.9909 L32.9502,9.3329 L25.7282,16.6749 C25.2812,17.1319 25.2812,17.8689 25.7282,18.3249 C25.9532,18.5529 26.2462,18.6659 26.5412,18.6659 C26.8342,18.6659 27.1282,18.5529 27.3512,18.3249 L34.5742,10.9839 L41.7952,18.3249 C42.0192,18.5529 42.3132,18.6659 42.6052,18.6659 C42.9002,18.6659 43.1942,18.5529 43.4182,18.3249 C43.8662,17.8689 43.8662,17.1319 43.4182,16.6749 L36.1962,9.3329 L43.4182,1.9909 C43.8662,1.5349 43.8662,0.7979 43.4182,0.3419 C43.1942,0.1129 42.9002,-0.0001 42.6072,-0.0001 C42.3132,-0.0001 42.0202,0.1129 41.7952,0.3419" id="Fill-37" fill="#29AB58"></path>
            </g>
        </g>
    </g>
</svg>