<?xml version="1.0" encoding="UTF-8"?>
<svg width="100px" height="29px" viewBox="0 0 100 29" version="1.1" xmlns="http://www.w3.org/2000/svg" xmlns:xlink="http://www.w3.org/1999/xlink">
    <!-- Generator: Sketch 41.2 (35397) - http://www.bohemiancoding.com/sketch -->
    <title>logo</title>
    <desc>Created with Sketch.</desc>
    <defs></defs>
    <g id="Dashboard" stroke="none" stroke-width="1" fill="none" fill-rule="evenodd">
        <g id="Home-Dashboard" transform="translate(-55.000000, -21.000000)">
            <g id="Side-Bar">
                <g id="Untitled-2" transform="translate(55.000000, 21.000000)">
                    <g id="Layer_1">
                        <g id="logo">
                            <path d="M20.2686567,9.15614035 C19.641791,3.63859649 14.6567164,-0.268421053 9.1641791,0.357894737 C3.64179104,1.01403509 -0.268656716,5.99473684 0.358208955,11.4824561 C0.567164179,13.2122807 1.19402985,14.822807 2.14925373,16.1350877 L2.14925373,16.1350877 L2.17910448,16.1649123 C2.23880597,16.2245614 2.29850746,16.3140351 2.35820896,16.3736842 L11.0746269,26.4842105 C11.3731343,26.8421053 11.7910448,27.0508772 12.2686567,26.9912281 C12.7462687,26.9315789 13.1044776,26.6333333 13.3134328,26.2157895 L19.4626866,14.3754386 C19.4925373,14.2859649 19.5522388,14.1964912 19.5820896,14.1070175 L19.6119403,14.077193 L19.6119403,14.077193 C20.238806,12.5859649 20.4776119,10.8859649 20.2686567,9.15614035 Z M15.0149254,10.4982456 L11.4029851,15.0912281 C11.1641791,15.4192982 10.6865672,15.4491228 10.3880597,15.2105263 L5.79104478,11.6017544 C5.46268657,11.3631579 5.43283582,10.8859649 5.67164179,10.5877193 L9.28358209,5.99473684 C9.52238806,5.66666667 10,5.63684211 10.2985075,5.8754386 L14.8955224,9.48421053 C15.2238806,9.72280702 15.2835821,10.2 15.0149254,10.4982456 Z" id="logo_icon" fill="#00A94E"></path>
                            <path d="M98.3283582,13.1526316 C97.3134328,12.2877193 95.9701493,11.7807018 94.6567164,11.7807018 C93.5522388,11.7807018 92,12.0789474 92,13.4807018 C92,13.7192982 92.0597015,13.9578947 92.1791045,14.1666667 C92.4179104,14.5842105 92.8955224,14.7929825 93.3432836,14.9421053 C93.9402985,15.1210526 94.5671642,15.2403509 95.1641791,15.3894737 C97.2537313,15.8666667 99.8208955,16.4631579 99.8208955,19.1175439 C99.8208955,19.7736842 99.6716418,20.4298246 99.3134328,20.9964912 C98.2985075,22.6368421 96.0597015,23.0842105 94.2686567,23.0842105 C92.9253731,23.0842105 91.2537313,22.9052632 90.0597015,22.2491228 C89.4328358,21.8912281 88.8059701,21.3245614 88.8059701,20.5491228 C88.8059701,19.3263158 89.9701493,19.2368421 90.2985075,19.5052632 C91.4626866,20.4596491 92.5373134,21.145614 94.0298507,21.145614 C95.1343284,21.145614 96.7761194,20.877193 96.7761194,19.4754386 C96.7761194,19.2070175 96.7164179,18.9684211 96.5671642,18.7298246 C96.2985075,18.3122807 95.8507463,18.1035088 95.4029851,17.954386 C94.8059701,17.7754386 94.2089552,17.6561404 93.5820896,17.5368421 C91.4626866,17.0894737 89.1641791,16.4631579 89.1641791,13.8385965 C89.1641791,13.1824561 89.3134328,12.5561404 89.641791,11.9894737 C90.5970149,10.3789474 92.6268657,9.87192982 94.3880597,9.87192982 C95.6119403,9.87192982 97.0149254,10.0210526 98.119403,10.5877193 C98.7164179,10.8859649 99.3134328,11.3929825 99.4328358,12.1087719 C99.4328358,12.1982456 99.4626866,12.2578947 99.4626866,12.3473684 C99.4626866,12.645614 99.3134328,12.9140351 99.1343284,13.1526316 C99.0447761,13.2719298 98.8955224,13.3315789 98.7462687,13.3614035 C98.5970149,13.3017544 98.4477612,13.2421053 98.3283582,13.1526316 Z M38.358209,10.3192982 C38.358209,10.0210526 38.0895522,9.78245614 37.7910448,9.78245614 L37.7313433,9.78245614 C36.9850746,9.87192982 36.4477612,10.0807018 36.0895522,10.4982456 C35.880597,10.7070175 35.761194,10.9754386 35.641791,11.2736842 C35.5522388,11.6017544 35.4925373,11.9596491 35.4925373,12.4070175 L35.4925373,17.7157895 C35.4925373,18.222807 35.4328358,18.6403509 35.3134328,18.9982456 C35.1940299,19.3561404 35.0149254,19.6245614 34.7761194,19.8333333 C34.5373134,20.0421053 34.238806,20.2210526 33.880597,20.3105263 C33.5223881,20.4298246 33.0746269,20.4596491 32.5373134,20.4596491 C32,20.4596491 31.5522388,20.4 31.1940299,20.3105263 C30.8059701,20.1912281 30.5373134,20.0421053 30.2985075,19.8333333 C30.0597015,19.6245614 29.880597,19.3263158 29.761194,18.9982456 C29.641791,18.6403509 29.5820896,18.2526316 29.5820896,17.7157895 L29.5820896,10.3491228 C29.5820896,10.0508772 29.3134328,9.8122807 29.0149254,9.8122807 L28.9552239,9.8122807 C28.2089552,9.90175439 27.6716418,10.1105263 27.3134328,10.5280702 C27.1044776,10.7368421 26.9850746,11.0052632 26.8656716,11.3035088 C26.7761194,11.6315789 26.7164179,11.9894737 26.7164179,12.4368421 L26.7164179,17.8350877 C26.7164179,19.445614 27.0746269,20.6982456 27.8507463,21.5631579 C28.8059701,22.6964912 30.358209,23.2333333 32.5373134,23.2333333 C34.7462687,23.2333333 36.2686567,22.6964912 37.2537313,21.5631579 C38,20.6982456 38.358209,19.4754386 38.358209,17.8350877 L38.358209,12.1087719 L38.358209,12.0491228 L38.358209,10.3192982 Z M41.3134328,28.0350877 C42.0597015,27.945614 42.5970149,27.7368421 42.9552239,27.3192982 C43.1641791,27.1105263 43.2835821,26.8421053 43.4029851,26.5438596 C43.4925373,26.245614 43.5522388,25.8578947 43.5522388,25.4105263 L43.5522388,22.6368421 C43.9402985,22.9052632 44.358209,23.1438596 44.8059701,23.322807 C45.4626866,23.5614035 46.1492537,23.7105263 46.8656716,23.7105263 C48.8656716,23.7105263 50.4179104,23.1140351 51.4925373,21.9508772 C52.5671642,20.7877193 53.1044776,19.0280702 53.1044776,16.7614035 C53.1044776,14.5245614 52.5671642,12.7947368 51.4925373,11.6017544 C50.4179104,10.4087719 48.8059701,9.8122807 46.7462687,9.8122807 C45.8208955,9.8122807 44.9552239,9.93157895 44.1791045,10.2298246 C43.4328358,10.4982456 42.7761194,10.8859649 42.2686567,11.3929825 C41.761194,11.9 41.3432836,12.5263158 41.0746269,13.2122807 C40.8059701,13.9280702 40.6567164,14.7333333 40.6567164,15.5982456 L40.6567164,27.5280702 C40.6865672,27.7964912 40.9552239,28.0649123 41.3134328,28.0350877 Z M43.5522388,15.8070175 C43.5522388,15.3 43.6119403,14.822807 43.761194,14.4052632 C43.9104478,13.9877193 44.119403,13.6596491 44.3880597,13.3912281 C44.6567164,13.122807 45.0149254,12.8842105 45.4029851,12.7649123 C45.8208955,12.6157895 46.2686567,12.5561404 46.7761194,12.5561404 C47.4029851,12.5561404 47.880597,12.645614 48.3283582,12.7947368 C48.7761194,12.9438596 49.1343284,13.2122807 49.4029851,13.5403509 C49.9701493,14.2263158 50.238806,15.2701754 50.238806,16.7912281 C50.238806,17.5368421 50.1791045,18.1631579 50.0298507,18.7298246 C49.880597,19.2666667 49.6716418,19.7140351 49.3731343,20.0719298 C49.2238806,20.2508772 49.0746269,20.4 48.8955224,20.5192982 C48.7164179,20.6385965 48.5074627,20.7578947 48.2985075,20.8473684 C47.880597,21.0263158 47.3432836,21.1157895 46.7462687,21.1157895 C46.3283582,21.1157895 45.9104478,21.0561404 45.5223881,20.9070175 C45.1343284,20.7578947 44.8059701,20.5789474 44.4776119,20.3105263 C43.8507463,19.7736842 43.5223881,19.0578947 43.5223881,18.2824561 L43.5522388,15.8070175 Z M87.1940299,10.3192982 C87.1940299,10.0210526 86.9253731,9.78245614 86.6268657,9.78245614 L86.5671642,9.78245614 C85.8208955,9.87192982 85.2835821,10.0807018 84.9253731,10.4982456 C84.7164179,10.7070175 84.5970149,10.9754386 84.4776119,11.2736842 C84.3880597,11.6017544 84.3283582,11.9596491 84.3283582,12.4070175 L84.3283582,17.7157895 C84.3283582,18.222807 84.2686567,18.6403509 84.1492537,18.9982456 C84.0298507,19.3561404 83.8507463,19.6245614 83.6119403,19.8333333 C83.3731343,20.0421053 83.0746269,20.2210526 82.7164179,20.3105263 C82.358209,20.4298246 81.9104478,20.4596491 81.3731343,20.4596491 C80.8358209,20.4596491 80.3880597,20.4 80.0298507,20.3105263 C79.641791,20.1912281 79.3731343,20.0421053 79.1343284,19.8333333 C78.8955224,19.6245614 78.7164179,19.3263158 78.5970149,18.9982456 C78.4776119,18.6403509 78.4179104,18.2526316 78.4179104,17.7157895 L78.4179104,10.3491228 C78.4179104,10.0508772 78.1492537,9.8122807 77.8507463,9.8122807 L77.7910448,9.8122807 C77.0447761,9.90175439 76.5074627,10.1105263 76.1492537,10.5280702 C75.9402985,10.7368421 75.8208955,11.0052632 75.7014925,11.3035088 C75.6119403,11.6315789 75.5522388,11.9894737 75.5522388,12.4368421 L75.5522388,17.8350877 C75.5522388,19.445614 75.9104478,20.6982456 76.6865672,21.5631579 C77.641791,22.6964912 79.1940299,23.2333333 81.3731343,23.2333333 C83.5820896,23.2333333 85.1044776,22.6964912 86.0895522,21.5631579 C86.8358209,20.6982456 87.1940299,19.4754386 87.1940299,17.8350877 L87.1940299,12.1087719 L87.1940299,12.0491228 L87.1940299,10.3192982 Z M67.1641791,9.87192982 C66.5373134,9.87192982 65.9402985,9.96140351 65.4029851,10.1701754 C64.9253731,10.3192982 64.5074627,10.5578947 64.119403,10.8561404 C64.0298507,10.7666667 63.9701493,10.6473684 63.880597,10.5578947 C63.7313433,10.4385965 63.5820896,10.3192982 63.3731343,10.2298246 C63.0149254,10.0508772 62.5970149,9.96140351 62.0895522,9.90175439 C61.880597,9.87192982 61.6716418,9.93157895 61.5223881,10.0807018 C61.3731343,10.2 61.2835821,10.3789474 61.2835821,10.5578947 L61.2835821,17.2684211 L61.2835821,20.9666667 C61.2835821,21.354386 61.3432836,21.6824561 61.4925373,21.9807018 C61.6119403,22.2491228 61.7910448,22.4877193 62.0298507,22.6666667 C62.3880597,22.9649123 62.8955224,23.1438596 63.5522388,23.2333333 C64,23.2929825 64.2985075,23.0245614 64.2985075,22.6070175 L64.2985075,17.2385965 L64.2985075,15.0315789 C64.2985075,14.6438596 64.358209,14.2859649 64.4477612,13.9877193 C64.5671642,13.7192982 64.7164179,13.4508772 64.9253731,13.2719298 C65.1343284,13.0929825 65.4029851,12.9438596 65.7313433,12.854386 C66.7164179,12.5859649 68.5373134,12.645614 69.2537313,13.3315789 C69.4925373,13.5403509 69.641791,13.8087719 69.7313433,14.1368421 C69.8507463,14.4947368 69.880597,14.9122807 69.880597,15.4192982 L69.880597,20.9964912 C69.880597,21.3842105 69.9402985,21.7122807 70.0895522,22.0105263 C70.2089552,22.2789474 70.3880597,22.5175439 70.6268657,22.6964912 C70.9850746,22.9947368 71.4925373,23.1736842 72.1492537,23.2631579 L72.2686567,23.2631579 C72.4477612,23.2631579 72.5970149,23.2035088 72.7164179,23.1140351 C72.8656716,22.9052632 72.9253731,22.7561404 72.9253731,22.5473684 L72.9253731,15.0315789 C72.9253731,13.6 72.5373134,12.4368421 71.8208955,11.5719298 C70.8656716,10.4385965 69.2835821,9.87192982 67.1641791,9.87192982 Z M55.2537313,17.2684211 L55.2537313,20.9666667 C55.2537313,21.354386 55.3134328,21.6824561 55.4626866,21.9807018 C55.5820896,22.2491228 55.761194,22.4877193 56,22.6666667 C56.358209,22.9649123 56.8656716,23.1438596 57.5223881,23.2333333 C57.9701493,23.2929825 58.2686567,23.0245614 58.2686567,22.6070175 L58.2686567,17.2385965 L58.2686567,12.1684211 C58.2686567,11.7807018 58.2089552,11.4526316 58.0597015,11.154386 C57.9402985,10.8859649 57.761194,10.6473684 57.5223881,10.4684211 C57.1641791,10.1701754 56.6567164,9.99122807 56,9.90175439 C55.5522388,9.84210526 55.2537313,10.1105263 55.2537313,10.5280702 L55.2537313,17.2684211 Z M56.7761194,8.23157895 C57.761194,8.23157895 58.4776119,7.75438596 58.4776119,6.71052632 C58.4776119,5.66666667 57.761194,5.21929825 56.7761194,5.21929825 C55.7910448,5.21929825 55.0746269,5.66666667 55.0746269,6.71052632 C55.0746269,7.75438596 55.7910448,8.23157895 56.7761194,8.23157895 Z" id="logo_text" fill="#F2F5FB"></path>
                        </g>
                    </g>
                </g>
            </g>
        </g>
    </g>
</svg>