<?xml version="1.0" encoding="UTF-8"?>
<svg width="26px" height="26px" viewBox="0 0 26 26" version="1.1" xmlns="http://www.w3.org/2000/svg" xmlns:xlink="http://www.w3.org/1999/xlink">
    <!-- Generator: Sketch 41.2 (35397) - http://www.bohemiancoding.com/sketch -->
    <title>mood-face-negative</title>
    <desc>Created with Sketch.</desc>
    <defs></defs>
    <g id="Dashboard" stroke="none" stroke-width="1" fill="none" fill-rule="evenodd">
        <g id="Home-Dashboard" transform="translate(-261.000000, -2181.000000)">
            <g id="mood-face-negative" transform="translate(261.000000, 2181.000000)">
                <path d="M23.421987,12.4100035 C23.421987,18.6739593 18.4789119,23.7514882 12.3813199,23.7514882 C6.28372797,23.7514882 1.34105263,18.6739593 1.34105263,12.4100035 C1.34105263,6.14604774 6.28372797,1.06810811 12.3813199,1.06810811 C18.4789119,1.06810811 23.421987,6.14604774 23.421987,12.4100035" id="Fill-1" fill="#FFD4D4"></path>
                <path d="M6.51736598,18.5788784 C6.29149962,18.5788784 6.06443398,18.5037257 5.87374682,18.350135 C5.41961553,17.9846383 5.34046237,17.3111388 5.69625184,16.8442066 C6.13439259,16.271732 6.63929383,15.7518233 7.19696385,15.3021392 C9.0646587,13.7962108 11.3940803,13.126818 13.7482873,13.4179833 C16.1060922,13.7091487 18.212046,14.9259651 19.6783784,16.8442066 C20.0345676,17.3099068 19.9554145,17.9846383 19.5020827,18.350135 C19.0475517,18.7135783 18.3919396,18.6347296 18.0361501,18.1690293 C16.9144139,16.7004719 15.3029674,15.7698928 13.4992347,15.5473094 C11.6990999,15.3271901 9.91575509,15.8368321 8.48660075,16.9899946 C8.05965338,17.3341364 7.67388165,17.7300226 7.33927964,18.1690293 C7.13340146,18.4380184 6.82638313,18.5788784 6.51736598,18.5788784" id="Fill-5" fill="#FF4419"></path>
                <path d="M9.10738025,7.72972973 C9.98046363,7.72972973 10.6884447,8.45702703 10.6884447,9.35352053 C10.6884447,10.2508354 9.98046363,10.977722 9.10738025,10.977722 C8.2338971,10.977722 7.52631579,10.2508354 7.52631579,9.35352053 C7.52631579,8.45702703 8.2338971,7.72972973 9.10738025,7.72972973" id="Fill-22" fill="#FF4419"></path>
                <path d="M16.633696,7.72972973 C17.5067794,7.72972973 18.2147605,8.45702703 18.2147605,9.35352053 C18.2147605,10.2508354 17.5067794,10.977722 16.633696,10.977722 C15.7606127,10.977722 15.0526316,10.2508354 15.0526316,9.35352053 C15.0526316,8.45702703 15.7606127,7.72972973 16.633696,7.72972973" id="Fill-24" fill="#FF4419"></path>
                <path d="M12.5185925,2.04308529 C6.71242815,2.04308529 1.98842342,6.8951562 1.98842342,12.8601439 C1.98842342,18.8238996 6.71242815,23.6767919 12.5185925,23.6767919 C18.3247569,23.6767919 23.0479622,18.8238996 23.0479622,12.8601439 C23.0479622,6.8951562 18.3247569,2.04308529 12.5185925,2.04308529 M12.5185925,25.7194665 C5.615877,25.7194665 0,19.9507792 0,12.8601439 C0,5.76909793 5.615877,0 12.5185925,0 C19.4209083,0 25.0367853,5.76909793 25.0367853,12.8601439 C25.0367853,19.9507792 19.4209083,25.7194665 12.5185925,25.7194665" id="Fill-26" fill="#FF4419"></path>
            </g>
        </g>
    </g>
</svg>