<?xml version="1.0" encoding="UTF-8"?>
<svg width="26px" height="26px" viewBox="0 0 26 26" version="1.1" xmlns="http://www.w3.org/2000/svg" xmlns:xlink="http://www.w3.org/1999/xlink">
    <!-- Generator: Sketch 41.2 (35397) - http://www.bohemiancoding.com/sketch -->
    <title>mood-face-good</title>
    <desc>Created with Sketch.</desc>
    <defs></defs>
    <g id="Dashboard" stroke="none" stroke-width="1" fill="none" fill-rule="evenodd">
        <g id="Home-Dashboard" transform="translate(-261.000000, -2067.000000)">
            <g id="mood-face-good" transform="translate(261.000000, 2067.000000)">
                <path d="M13.5246331,24.8633536 C7.232759,24.8633536 2.13259958,19.5403488 2.13259958,12.9735587 C2.13259958,6.40676866 7.232759,1.08333333 13.5246331,1.08333333 C19.8165072,1.08333333 24.9166667,6.40676866 24.9166667,12.9735587 C24.9166667,19.5403488 19.8165072,24.8633536 13.5246331,24.8633536 Z" id="Fill-28" fill="#DDEDFF"></path>
                <path d="M19.2598607,15.5611278 C19.4817822,15.5611278 19.7056711,15.6358698 19.8933601,15.7894605 C20.3403509,16.1553678 20.417866,16.8288673 20.0680642,17.2957996 C19.6368125,17.8682741 19.1398499,18.3881829 18.5909483,18.837867 C16.7526197,20.3437954 14.4598242,21.0131881 12.1422396,20.7220228 C9.82190063,20.4304468 7.74905924,19.2140411 6.30578243,17.2957996 C5.95519365,16.8296887 6.03310227,16.1553678 6.47930617,15.7894605 C6.92629702,15.4264279 7.57238768,15.5048659 7.9221895,15.9709768 C9.02628839,17.4391236 10.6120042,18.3701134 12.3873763,18.5922861 C14.1596006,18.8128161 15.9149054,18.3031741 17.3215887,17.1500116 C17.7418231,16.8058698 18.1215292,16.4095728 18.4504767,15.9709768 C18.6535113,15.701577 18.9557023,15.5611278 19.2598607,15.5611278" id="Fill-30" fill="#2E8CFB"></path>
                <path d="M9.51974898,8.06117726 C10.3791046,8.06117726 11.0755605,8.78847455 11.0755605,9.68496806 C11.0755605,10.5822829 10.3791046,11.3091695 9.51974898,11.3091695 C8.65999984,11.3091695 7.96354402,10.5822829 7.96354402,9.68496806 C7.96354402,8.78847455 8.65999984,8.06117726 9.51974898,8.06117726" id="Fill-32" fill="#2E8CFB"></path>
                <path d="M16.4486581,8.06117726 C17.3080137,8.06117726 18.004863,8.78847455 18.004863,9.68496806 C18.004863,10.5822829 17.3080137,11.3091695 16.4486581,11.3091695 C15.588909,11.3091695 14.8924531,10.5822829 14.8924531,9.68496806 C14.8924531,8.78847455 15.588909,8.06117726 16.4486581,8.06117726" id="Fill-34" fill="#2E8CFB"></path>
                <path d="M13,2.06537012 C6.97077984,2.06537012 2.06495497,6.97036469 2.06495497,13.0004151 C2.06495497,19.0292202 6.97077984,23.935045 13,23.935045 C19.0296353,23.935045 23.935045,19.0292202 23.935045,13.0004151 C23.935045,6.97036469 19.0296353,2.06537012 13,2.06537012 M13,26 C5.83160887,26 1.24344979e-14,20.1683911 1.24344979e-14,13.0004151 C1.24344979e-14,5.83202401 5.83160887,-1.77635684e-15 13,-1.77635684e-15 C20.1683911,-1.77635684e-15 26,5.83202401 26,13.0004151 C26,20.1683911 20.1683911,26 13,26" id="Fill-36" fill="#2E8CFB"></path>
            </g>
        </g>
    </g>
</svg>