<?xml version="1.0" encoding="UTF-8"?>
<svg width="26px" height="26px" viewBox="0 0 26 26" version="1.1" xmlns="http://www.w3.org/2000/svg" xmlns:xlink="http://www.w3.org/1999/xlink">
    <!-- Generator: Sketch 41.2 (35397) - http://www.bohemiancoding.com/sketch -->
    <title>mood-face-average</title>
    <desc>Created with Sketch.</desc>
    <defs>
        <polygon id="path-1" points="25.5912601 0 1.73654261e-14 0 -5.55111512e-17 26 25.5912601 26 25.5912601 1.17992851e-14"></polygon>
    </defs>
    <g id="Dashboard" stroke="none" stroke-width="1" fill="none" fill-rule="evenodd">
        <g id="Home-Dashboard" transform="translate(-262.000000, -2124.000000)">
            <g id="mood-face-average" transform="translate(262.000000, 2124.000000)">
                <g id="Group-11">
                    <path d="M12.7958532,24.6958809 C6.31786718,24.6958809 1.0663025,19.4999895 1.0663025,13.089692 C1.0663025,6.67983621 6.31786718,1.48394481 12.7958532,1.48394481 C16.034623,1.48394481 18.9668991,2.78291766 21.0894828,4.88312249 C23.2120664,6.98332732 24.5249576,9.88476413 24.5249576,13.089692 C24.5249576,19.4999895 19.2733929,24.6958809 12.7958532,24.6958809 Z" id="Fill-3" fill="#FFE2B9"></path>
                    <path d="M17.697035,18.2031261 C17.6873363,18.2031261 17.6784458,18.2031261 17.6687471,18.2027262 L8.02013482,17.9740044 C7.39577957,17.9596093 6.90154884,17.4465847 6.91690515,16.8287959 C6.93145324,16.211407 7.45114311,15.7223742 8.07428602,15.7371691 L17.7233024,15.9658909 C18.3476576,15.980286 18.8414842,16.4937105 18.8269361,17.1110994 C18.811984,17.7196914 18.3084586,18.2031261 17.697035,18.2031261" id="Fill-7" fill="#FF9500"></path>
                    <path d="M9.20648107,8.89473684 C10.0890648,8.89473684 10.8047497,9.60289474 10.8047497,10.4761962 C10.8047497,11.3498975 10.0890648,12.0576555 9.20648107,12.0576555 C8.32349322,12.0576555 7.60821245,11.3498975 7.60821245,10.4761962 C7.60821245,9.60289474 8.32349322,8.89473684 9.20648107,8.89473684" id="Fill-15" fill="#FF9500"></path>
                    <path d="M16.8142894,8.89473684 C17.6972772,8.89473684 18.412558,9.60289474 18.412558,10.4761962 C18.412558,11.3498975 17.6972772,12.0576555 16.8142894,12.0576555 C15.9317057,12.0576555 15.2164249,11.3498975 15.2164249,10.4761962 C15.2164249,9.60289474 15.9317057,8.89473684 16.8142894,8.89473684" id="Fill-17" fill="#FF9500"></path>
                    <g id="Group-21">
                        <mask id="mask-2" fill="white">
                            <use xlink:href="#path-1"></use>
                        </mask>
                        <g id="Clip-20"></g>
                        <path d="M12.7958343,2.06533714 C6.86089477,2.06533714 2.03252475,6.97108368 2.03252475,13.0006227 C2.03252475,19.0297466 6.86089477,23.9354931 12.7958343,23.9354931 C18.7299567,23.9354931 23.5587353,19.0297466 23.5587353,13.0006227 C23.5587353,6.97108368 18.7299567,2.06533714 12.7958343,2.06533714 M12.7958343,26 C5.74002316,26 -5.55111512e-17,20.1684842 -5.55111512e-17,13.0006227 C-5.55111512e-17,5.83193089 5.74002316,0 12.7958343,0 C19.8516455,0 25.5912601,5.83193089 25.5912601,13.0006227 C25.5912601,20.1684842 19.8516455,26 12.7958343,26" id="Fill-19" fill="#FF9500" mask="url(#mask-2)"></path>
                    </g>
                </g>
            </g>
        </g>
    </g>
</svg>