<?xml version="1.0" encoding="UTF-8"?>
<svg width="12px" height="2px" viewBox="0 0 12 2" version="1.1" xmlns="http://www.w3.org/2000/svg" xmlns:xlink="http://www.w3.org/1999/xlink">
    <!-- Generator: Sketch 41.2 (35397) - http://www.bohemiancoding.com/sketch -->
    <title>Combined Shape</title>
    <desc>Created with Sketch.</desc>
    <defs></defs>
    <g id="Dashboard" stroke="none" stroke-width="1" fill="none" fill-rule="evenodd">
        <g id="Home-Dashboard" transform="translate(-478.000000, -273.000000)" fill="#030C09">
            <g id="Overall" transform="translate(240.000000, 253.000000)">
                <g id="1">
                    <g id="Path-8-+-Path-8-Mask">
                        <path d="M239,22 C239.552285,22 240,21.5522847 240,21 C240,20.4477153 239.552285,20 239,20 C238.447715,20 238,20.4477153 238,21 C238,21.5522847 238.447715,22 239,22 Z M244,22 C244.552285,22 245,21.5522847 245,21 C245,20.4477153 244.552285,20 244,20 C243.447715,20 243,20.4477153 243,21 C243,21.5522847 243.447715,22 244,22 Z M249,22 C249.552285,22 250,21.5522847 250,21 C250,20.4477153 249.552285,20 249,20 C248.447715,20 248,20.4477153 248,21 C248,21.5522847 248.447715,22 249,22 Z" id="Combined-Shape"></path>
                    </g>
                </g>
            </g>
        </g>
    </g>
</svg>