<?xml version="1.0" encoding="UTF-8"?>
<svg width="50px" height="52px" viewBox="0 0 50 52" version="1.1" xmlns="http://www.w3.org/2000/svg" xmlns:xlink="http://www.w3.org/1999/xlink">
    <!-- Generator: Sketch 41.2 (35397) - http://www.bohemiancoding.com/sketch -->
    <title>open-box</title>
    <desc>Created with Sketch.</desc>
    <defs></defs>
    <g id="Dashboard" stroke="none" stroke-width="1" fill="none" fill-rule="evenodd">
        <g id="Head-Notification" transform="translate(-800.000000, -368.000000)">
            <g id="Group-11" transform="translate(578.000000, 368.000000)">
                <g id="Group-17">
                    <g id="Group-7">
                        <g id="open-box" transform="translate(222.000000, 0.000000)">
                            <g id="Layer_1">
                                <path d="M21.5762207,49.7832185 C21.1755371,49.7832185 20.7747559,49.6291831 20.4690918,49.3209154 L15.4586426,44.2710138 C14.8471191,43.6546752 14.8471191,42.655561 15.4586426,42.0393209 C16.0700684,41.4229823 17.0614746,41.4229823 17.6729004,42.0393209 L21.5762207,45.9732776 L29.0286621,38.4622539 C29.6400879,37.8459154 30.6314941,37.8459154 31.2429199,38.4622539 C31.8544434,39.0785925 31.8544434,40.0777067 31.2429199,40.6939469 L22.6834473,49.3208169 C22.3776855,49.6290846 21.977002,49.7832185 21.5762207,49.7832185 Z" id="Shape" fill="#29AB58"></path>
                                <polygon id="Shape" fill="#29AB58" transform="translate(27.185791, 12.099803) rotate(-180.000000) translate(-27.185791, -12.099803) " points="32.1961914 13.3623031 32.1961914 2 22.1753906 2 22.1753906 13.3623031 18 13.3623031 27.1858398 22.1996063 36.371582 13.3623031"></polygon>
                                <path d="M49.9172852,19.7035433 C49.7845703,19.4362205 49.5136719,19.2673228 49.2170898,19.2673228 L40.4488281,19.2673228 C40.2024414,19.2673228 39.9703125,19.384252 39.8225586,19.5829724 L33.7943359,27.6838583 L16.2055664,27.6838583 L10.1773437,19.5829724 C10.0294922,19.384252 9.79736328,19.2673228 9.55107422,19.2673228 L0.7828125,19.2673228 C0.486230469,19.2673228 0.215136719,19.4362205 0.0826171875,19.7035433 C-0.0499023438,19.9708661 -0.0213867188,20.2906496 0.156542969,20.5298228 L6.26298828,28.7359252 L6.26298828,51.1974409 C6.26298828,51.6331693 6.61337891,51.9865157 7.04589844,51.9865157 L42.9540039,51.9865157 C43.3864258,51.9865157 43.7369141,51.6332677 43.7369141,51.1974409 L43.7369141,28.7358268 L49.8433594,20.5297244 C50.0212891,20.2906496 50.0498047,19.9708661 49.9172852,19.7035433 Z M17.0145508,29.2619094 L23.7995117,29.2619094 L23.7995117,32.3128937 L17.0145508,32.3128937 L17.0145508,29.2619094 L17.0145508,29.2619094 Z M9.15966797,20.845374 L14.2484375,27.6837598 L7.43730469,27.6837598 L2.34863281,20.845374 L9.15966797,20.845374 Z M42.1711914,50.4082677 L34.9686523,50.4082677 L34.9686523,47.8307087 C34.9686523,47.3949803 34.6182617,47.0416339 34.1857422,47.0416339 C33.7532227,47.0416339 33.402832,47.3948819 33.402832,47.8307087 L33.402832,50.4082677 L7.82880859,50.4082677 L7.82880859,29.2619094 L15.4488281,29.2619094 L15.4488281,33.1019685 C15.4488281,33.5376969 15.7992187,33.8910433 16.2317383,33.8910433 L24.5824219,33.8910433 C25.0148437,33.8910433 25.365332,33.5377953 25.365332,33.1019685 L25.365332,29.2619094 L33.4029297,29.2619094 L33.4029297,44.2537402 C33.4029297,44.6894685 33.7533203,45.042815 34.1858398,45.042815 C34.6183594,45.042815 34.96875,44.6895669 34.96875,44.2537402 L34.96875,29.2619094 L42.1712891,29.2619094 L42.1712891,50.4082677 L42.1711914,50.4082677 Z M42.5625977,27.6837598 L35.7515625,27.6837598 L40.840332,20.845374 L47.6513672,20.845374 L42.5625977,27.6837598 Z" id="Shape" fill="#4F545A"></path>
                                <path d="M28.0270508,35.4690945 C27.3996094,35.4690945 26.8098633,35.7152559 26.3663086,36.1624016 L19.4675781,43.1154528 L16.1178711,39.7394685 C15.6743164,39.2923228 15.0845703,39.046063 14.4571289,39.046063 C13.8296875,39.046063 13.2399414,39.2922244 12.7964844,39.7393701 C12.352832,40.1865157 12.1084961,40.7809055 12.1084961,41.413189 C12.1084961,42.0454724 12.352832,42.6398622 12.7963867,43.0870079 L17.8068359,48.1369094 C18.2503906,48.5840551 18.8401367,48.830315 19.4675781,48.830315 C20.0950195,48.830315 20.6847656,48.5840551 21.1283203,48.1370079 L29.6876953,39.5101378 C30.1313477,39.0629921 30.3756836,38.4686024 30.3756836,37.8363189 C30.3756836,37.2040354 30.1313477,36.6096457 29.687793,36.1625984 C29.2443359,35.7152559 28.6545898,35.4690945 28.0270508,35.4690945 Z M28.5806641,38.3940945 L20.0211914,47.0209646 C19.8733398,47.1699803 19.6767578,47.2519685 19.4676758,47.2519685 C19.2585937,47.2519685 19.0619141,47.1698819 18.9141602,47.0208661 L13.9036133,41.9709646 C13.7557617,41.8218504 13.6744141,41.6238189 13.6744141,41.4130906 C13.6744141,41.2023622 13.7558594,41.0042323 13.9037109,40.8551181 C14.0515625,40.7060039 14.2481445,40.6241142 14.4572266,40.6241142 C14.6663086,40.6241142 14.8629883,40.7062008 15.0107422,40.8552165 L18.9140625,44.7891732 C19.2199219,45.0973425 19.7155273,45.0973425 20.0212891,44.7891732 L27.4737305,37.2780512 C27.621582,37.128937 27.8181641,37.0470472 28.0272461,37.0470472 C28.2363281,37.0470472 28.4330078,37.1291339 28.5808594,37.2781496 C28.7287109,37.4272638 28.8100586,37.6252953 28.8100586,37.8360236 C28.8100586,38.0468504 28.7285156,38.2449803 28.5806641,38.3940945 Z" id="Shape" fill="#4F545A"></path>
                                <path d="M24.459375,21.5728346 C24.6106445,21.7183071 24.8052734,21.7911417 25,21.7911417 C25.1947266,21.7911417 25.3892578,21.7184055 25.540625,21.5728346 L34.7264648,12.7355315 C34.9579102,12.5127953 35.031543,12.1706693 34.9125977,11.8712598 C34.7935547,11.5719488 34.505957,11.3757874 34.1858398,11.3757874 L30.7933594,11.3757874 L30.7933594,0.802559055 C30.7933594,0.366830709 30.4429688,0.013484252 30.0104492,0.013484252 L19.9895508,0.013484252 C19.5571289,0.013484252 19.2066406,0.366732283 19.2066406,0.802559055 L19.2066406,3.11712598 C19.2066406,3.55285433 19.5570313,3.90620079 19.9895508,3.90620079 C20.4220703,3.90620079 20.7724609,3.55295276 20.7724609,3.11712598 L20.7724609,1.59163386 L29.2275391,1.59163386 L29.2275391,12.1648622 C29.2275391,12.6005906 29.5779297,12.953937 30.0104492,12.953937 L32.2318359,12.953937 L25,19.9113189 L17.7681641,12.9538386 L19.9895508,12.9538386 C20.4219727,12.9538386 20.7724609,12.6005906 20.7724609,12.1647638 L20.7724609,6.48366142 C20.7724609,6.04793307 20.4220703,5.69458661 19.9895508,5.69458661 C19.5570313,5.69458661 19.2066406,6.04783465 19.2066406,6.48366142 L19.2066406,11.3757874 L15.8141602,11.3757874 C15.4942383,11.3757874 15.2064453,11.5719488 15.0874023,11.8712598 C14.9683594,12.1706693 15.0420898,12.5127953 15.2735352,12.7355315 L24.459375,21.5728346 Z" id="Shape" fill="#4F545A" transform="translate(24.999978, 10.902313) rotate(-180.000000) translate(-24.999978, -10.902313) "></path>
                            </g>
                        </g>
                    </g>
                </g>
            </g>
        </g>
    </g>
</svg>