<?xml version="1.0" encoding="UTF-8"?>
<svg width="46px" height="49px" viewBox="0 0 46 49" version="1.1" xmlns="http://www.w3.org/2000/svg" xmlns:xlink="http://www.w3.org/1999/xlink">
    <!-- Generator: Sketch 41.2 (35397) - http://www.bohemiancoding.com/sketch -->
    <title>Group 19</title>
    <desc>Created with Sketch.</desc>
    <defs></defs>
    <g id="Dashboard" stroke="none" stroke-width="1" fill="none" fill-rule="evenodd">
        <g id="Product-Pinned-List" transform="translate(-801.000000, -271.000000)">
            <g id="Group-11" transform="translate(581.000000, 232.000000)">
                <g id="Group-19" transform="translate(221.000000, 40.000000)">
                    <g id="Group-22">
                        <g id="Group-21" transform="translate(5.893640, 0.000000)">
                            <path d="M32.9001031,15.8651551 C32.015643,8.16652872 24.9820797,2.71506897 17.2325248,3.5889671 C9.44085284,4.50447942 3.92350673,11.4540502 4.80796679,19.1110624 C5.10278681,21.5246858 5.98724688,23.7718524 7.33499555,25.6028771 L7.33499555,25.6028771 L7.37711269,25.6444913 C7.46134698,25.7277197 7.54558128,25.8525623 7.62981557,25.9357907 L19.9280222,40.0430033 C20.3491936,40.5423737 20.9388337,40.833673 21.612708,40.7504446 C22.2865823,40.6672162 22.7919881,40.2510743 23.0868081,39.6684755 L31.7629402,23.1476395 C31.8050573,23.0227969 31.8892916,22.8979543 31.9314087,22.7731117 L31.9735259,22.7314975 L31.9735259,22.7314975 C32.8579859,20.6507877 33.1949231,18.2787785 32.9001031,15.8651551 Z M25.4874854,17.7377939 L20.3913108,24.1463802 C20.0543736,24.6041364 19.3804993,24.6457506 18.9593278,24.312837 L12.4732873,19.2775192 C12.0099987,18.9446056 11.9678816,18.2787785 12.3048188,17.8626365 L17.4009934,11.4540502 C17.7379306,10.9962941 18.4118049,10.9546799 18.8329764,11.2875935 L25.3190168,16.3229112 C25.7823054,16.6558248 25.8665397,17.321652 25.4874854,17.7377939 Z" id="Shape" fill="#00A94E"></path>
                            <path d="M30.5339567,14.1773444 C29.5757916,5.8371658 21.956098,-0.068582267 13.5607469,0.878140705 C5.11976894,1.86994572 -0.857356013,9.39864745 0.100809055,17.693744 C0.420197412,20.3085027 1.37836248,22.7429332 2.83842354,24.7265432 L2.83842354,24.7265432 L2.88405045,24.7716252 C2.97530426,24.8617893 3.06655808,24.9970355 3.15781189,25.0871996 L16.480869,40.3700133 C16.9371381,40.9109978 17.5759148,41.2265721 18.3059454,41.136408 C19.0359759,41.0462439 19.5834988,40.5954235 19.9028871,39.9642748 L29.3020302,22.0667025 C29.3476571,21.9314563 29.4389109,21.7962102 29.4845378,21.660964 L29.5301647,21.615882 L29.5301647,21.615882 C30.4883298,19.3617797 30.8533451,16.792103 30.5339567,14.1773444 Z M22.5036209,16.2060364 L16.982765,23.1486716 C16.6177498,23.6445741 15.8877192,23.6896561 15.4314502,23.3289998 L8.40490632,17.8740722 C7.90301033,17.5134158 7.85738342,16.792103 8.22239869,16.3412826 L13.7432546,9.39864745 C14.1082698,8.90274494 14.8383004,8.8576629 15.2945694,9.21831927 L22.3211133,14.6732469 C22.8230093,15.0339032 22.9142631,15.755216 22.5036209,16.2060364 Z" id="Shape-Copy" stroke="#4F545A" stroke-width="2"></path>
                        </g>
                        <g id="Group-20" transform="translate(0.000000, 45.461310)" stroke="#4F545A" stroke-width="2" stroke-linecap="round">
                            <path d="M14,1.53869048 L38,1.53869048" id="Path-2"></path>
                            <path d="M0,1.53869048 L8,1.53869048" id="Path-2"></path>
                            <path d="M42,1.53869048 L44,1.53869048" id="Path-2"></path>
                        </g>
                    </g>
                </g>
            </g>
        </g>
    </g>
</svg>