<?xml version="1.0" encoding="UTF-8"?>
<svg width="58px" height="58px" viewBox="0 0 58 58" version="1.1" xmlns="http://www.w3.org/2000/svg" xmlns:xlink="http://www.w3.org/1999/xlink">
    <!-- Generator: Sketch 41.2 (35397) - http://www.bohemiancoding.com/sketch -->
    <title>price-swap</title>
    <desc>Created with Sketch.</desc>
    <defs>
        <polygon id="path-1" points="24.9255 0.028 0.0133846154 0.028 0.0133846154 39.4082222 49.8376154 39.4082222 49.8376154 0.028"></polygon>
    </defs>
    <g id="Dashboard" stroke="none" stroke-width="1" fill="none" fill-rule="evenodd">
        <g id="Product-Pinned-w/-Item-edit-Variant-w/-tooltip" transform="translate(-1246.000000, -714.000000)">
            <g id="Right" transform="translate(1140.000000, 156.000000)">
                <g id="Comin'-Soon" transform="translate(0.000000, 460.000000)">
                    <g id="Group-21">
                        <g id="Group-19" transform="translate(68.000000, 98.000000)">
                            <g id="price-swap" transform="translate(38.000000, 0.000000)">
                                <g id="changing-money">
                                    <path d="M32,48 C41.3888407,48 49,40.3888407 49,31 C49,21.6111593 41.3888407,14 32,14 C22.6111593,14 15,21.6111593 15,31 C15,40.3888407 22.6111593,48 32,48 Z M28.6723462,19 L28.6723462,21.0884444 C27.9185692,21.262 27.2085154,21.5875556 26.5540077,22.0693333 C24.7642615,23.3853333 23.9589538,25.2091111 24.4017615,26.9477778 C24.8269462,28.6197778 26.3543538,29.8348889 28.3874769,30.1188889 C32.9962462,30.7628889 33.7464538,31.4477778 33.5494769,33.0562222 C33.4441846,33.9131111 32.9500692,34.5268889 32.0794,34.8793333 C30.6095462,35.4746667 28.0597769,35.2222222 25.6773154,33.3151111 L24,35.394 C25.4404077,36.5466667 27.0682,37.3106667 28.6714538,37.6431111 L28.6714538,40.0111111 L31.3483769,40.0111111 L31.3483769,37.7837778 C31.9558154,37.7133333 32.5405,37.5711111 33.0877077,37.3488889 C34.8480077,36.6362222 35.9841385,35.1891111 36.2063231,33.3793333 C36.4581769,31.3253333 35.6495231,29.7351111 33.8675846,28.782 C32.4856231,28.0433333 30.6626385,27.7437778 28.7586769,27.4782222 C27.8106,27.3453333 27.1518538,26.9026667 26.9965923,26.2924444 C26.8310692,25.6404444 27.2598231,24.8644444 28.1434308,24.2142222 C29.0792385,23.526 30.1825769,23.4253333 31.5156846,23.9044444 C32.6466846,24.3115556 33.4798769,24.992 33.4885769,24.9991111 L34.3451923,23.9746667 L35.2060462,22.954 C35.0909385,22.8575556 34.0348923,21.9946667 32.5126154,21.4286667 C32.1195538,21.282 31.7318462,21.17 31.3492692,21.0902222 L31.3492692,19 L28.6723462,19 Z" id="Combined-Shape" fill="#00A141"></path>
                                    <path d="M10.1638308,28.9031111 C10.1638308,39.2415556 18.6077385,47.6522222 28.9861692,47.6522222 C39.3643769,47.6522222 47.8073923,39.2415556 47.8073923,28.9031111 C47.8073923,18.5644444 39.3643769,10.1531111 28.9861692,10.1531111 C18.6077385,10.1531111 10.1638308,18.5644444 10.1638308,28.9031111 Z M45.1304692,28.9031111 C45.1304692,37.7711111 37.8882769,44.9855556 28.9861692,44.9855556 C20.0838385,44.9855556 12.8407538,37.7711111 12.8407538,28.9031111 C12.8407538,20.0351111 20.0838385,12.8197778 28.9861692,12.8197778 C37.8882769,12.8197778 45.1304692,20.0351111 45.1304692,28.9031111 Z" id="Fill-1" fill="#4F545A"></path>
                                    <g id="Group-5">
                                        <mask id="mask-2" fill="white">
                                            <use xlink:href="#path-1"></use>
                                        </mask>
                                        <g id="Clip-3"></g>
                                        <path d="M28.9861692,2.69466667 C34.7433385,2.69466667 40.2192077,4.52711111 44.7443231,7.91177778 L41.2239462,7.91177778 L41.2239462,10.5784444 L49.8376154,10.5784444 L49.8376154,1.99866667 L47.1606923,1.99866667 L47.1606923,6.40666667 C42.0256846,2.27466667 35.6775846,0.028 28.9861692,0.028 C13.0029308,0.028 0,12.9811111 0,28.9031111 L2.67692308,28.9031111 C2.67692308,14.4517778 14.4790308,2.69466667 28.9861692,2.69466667 Z" id="Fill-4" fill="#4F545A" mask="url(#mask-2)"></path>
                                    </g>
                                    <path d="M55.2951923,28.9031111 C55.2951923,43.3544444 43.4930846,55.1113333 28.9861692,55.1113333 C23.3916231,55.1113333 18.0473692,53.3744444 13.5929692,50.1617778 L17.0872462,50.1617778 L17.0872462,47.4951111 L8.47424615,47.4951111 L8.47424615,56.0757778 L11.1511692,56.0757778 L11.1511692,51.666 C16.2270615,55.6262222 22.4515769,57.778 28.9861692,57.778 C44.9691846,57.778 57.9721154,44.8248889 57.9721154,28.9031111 L55.2951923,28.9031111 Z" id="Fill-6" fill="#4F545A"></path>
                                </g>
                            </g>
                        </g>
                    </g>
                </g>
            </g>
        </g>
    </g>
</svg>