<?xml version="1.0" encoding="UTF-8"?>
<svg width="255px" height="15px" viewBox="0 0 255 15" version="1.1" xmlns="http://www.w3.org/2000/svg" xmlns:xlink="http://www.w3.org/1999/xlink">
    <!-- Generator: Sketch 41.2 (35397) - http://www.bohemiancoding.com/sketch -->
    <title>Group 19</title>
    <desc>Created with Sketch.</desc>
    <defs>
        <linearGradient x1="100%" y1="50%" x2="0%" y2="50%" id="linearGradient-1">
            <stop stop-color="#FFC400" stop-opacity="0" offset="0%"></stop>
            <stop stop-color="#FFC400" offset="100%"></stop>
        </linearGradient>
    </defs>
    <g id="Dashboard" stroke="none" stroke-width="1" fill="none" fill-rule="evenodd">
        <g id="Review" transform="translate(-593.000000, -358.000000)">
            <g id="Group-23" transform="translate(457.000000, 272.000000)">
                <g id="Group-22" transform="translate(48.000000, 54.000000)">
                    <g id="Group-20" transform="translate(88.000000, 0.000000)">
                        <g id="Group-19" transform="translate(0.000000, 31.000000)">
                            <g id="Group-24" transform="translate(0.000000, 8.000000)" fill="url(#linearGradient-1)">
                                <rect id="Rectangle-2" x="185" y="0" width="70" height="1"></rect>
                                <rect id="Rectangle-2-Copy" transform="translate(35.000000, 0.500000) rotate(-180.000000) translate(-35.000000, -0.500000) " x="0" y="0" width="70" height="1"></rect>
                            </g>
                            <path d="M95,6.81027889 C95,6.94890593 94.9218758,7.10013315 94.765625,7.26396509 L91.4933894,10.6099008 L92.2686298,15.3357987 C92.2746395,15.3799073 92.2776442,15.4429187 92.2776442,15.5248347 C92.2776442,15.6571605 92.2460941,15.7690056 92.1829928,15.8603734 C92.1198915,15.9517412 92.0282458,15.9974245 91.9080529,15.9974245 C91.7938696,15.9974245 91.6736785,15.9596176 91.547476,15.8840029 L87.5,13.6533791 L83.452524,15.8840029 C83.3203118,15.9596176 83.2001207,15.9974245 83.0919471,15.9974245 C82.9657446,15.9974245 82.8710941,15.9517412 82.8079928,15.8603734 C82.7448915,15.7690056 82.7133413,15.6571605 82.7133413,15.5248347 C82.7133413,15.4870273 82.7193509,15.4240159 82.7313702,15.3357987 L83.5066106,10.6099008 L80.2253606,7.26396509 C80.0751194,7.09383192 80,6.9426047 80,6.81027889 C80,6.57713343 80.1682675,6.43220734 80.5048077,6.37549628 L85.0300481,5.68551519 L87.0582933,1.38494808 C87.1724765,1.1265977 87.3197106,0.997424451 87.5,0.997424451 C87.6802894,0.997424451 87.8275235,1.1265977 87.9417067,1.38494808 L89.9699519,5.68551519 L94.4951923,6.37549628 C94.8317325,6.43220734 95,6.57713343 95,6.81027889 Z M115,6.81027889 C115,6.94890593 114.921876,7.10013315 114.765625,7.26396509 L111.493389,10.6099008 L112.26863,15.3357987 C112.274639,15.3799073 112.277644,15.4429187 112.277644,15.5248347 C112.277644,15.6571605 112.246094,15.7690056 112.182993,15.8603734 C112.119892,15.9517412 112.028246,15.9974245 111.908053,15.9974245 C111.79387,15.9974245 111.673679,15.9596176 111.547476,15.8840029 L107.5,13.6533791 L103.452524,15.8840029 C103.320312,15.9596176 103.200121,15.9974245 103.091947,15.9974245 C102.965745,15.9974245 102.871094,15.9517412 102.807993,15.8603734 C102.744892,15.7690056 102.713341,15.6571605 102.713341,15.5248347 C102.713341,15.4870273 102.719351,15.4240159 102.73137,15.3357987 L103.506611,10.6099008 L100.225361,7.26396509 C100.075119,7.09383192 100,6.9426047 100,6.81027889 C100,6.57713343 100.168268,6.43220734 100.504808,6.37549628 L105.030048,5.68551519 L107.058293,1.38494808 C107.172477,1.1265977 107.319711,0.997424451 107.5,0.997424451 C107.680289,0.997424451 107.827523,1.1265977 107.941707,1.38494808 L109.969952,5.68551519 L114.495192,6.37549628 C114.831732,6.43220734 115,6.57713343 115,6.81027889 Z M135,6.81027889 C135,6.94890593 134.921876,7.10013315 134.765625,7.26396509 L131.493389,10.6099008 L132.26863,15.3357987 C132.274639,15.3799073 132.277644,15.4429187 132.277644,15.5248347 C132.277644,15.6571605 132.246094,15.7690056 132.182993,15.8603734 C132.119892,15.9517412 132.028246,15.9974245 131.908053,15.9974245 C131.79387,15.9974245 131.673679,15.9596176 131.547476,15.8840029 L127.5,13.6533791 L123.452524,15.8840029 C123.320312,15.9596176 123.200121,15.9974245 123.091947,15.9974245 C122.965745,15.9974245 122.871094,15.9517412 122.807993,15.8603734 C122.744892,15.7690056 122.713341,15.6571605 122.713341,15.5248347 C122.713341,15.4870273 122.719351,15.4240159 122.73137,15.3357987 L123.506611,10.6099008 L120.225361,7.26396509 C120.075119,7.09383192 120,6.9426047 120,6.81027889 C120,6.57713343 120.168268,6.43220734 120.504808,6.37549628 L125.030048,5.68551519 L127.058293,1.38494808 C127.172477,1.1265977 127.319711,0.997424451 127.5,0.997424451 C127.680289,0.997424451 127.827523,1.1265977 127.941707,1.38494808 L129.969952,5.68551519 L134.495192,6.37549628 C134.831732,6.43220734 135,6.57713343 135,6.81027889 Z M155,6.81027889 C155,6.94890593 154.921876,7.10013315 154.765625,7.26396509 L151.493389,10.6099008 L152.26863,15.3357987 C152.274639,15.3799073 152.277644,15.4429187 152.277644,15.5248347 C152.277644,15.6571605 152.246094,15.7690056 152.182993,15.8603734 C152.119892,15.9517412 152.028246,15.9974245 151.908053,15.9974245 C151.79387,15.9974245 151.673679,15.9596176 151.547476,15.8840029 L147.5,13.6533791 L143.452524,15.8840029 C143.320312,15.9596176 143.200121,15.9974245 143.091947,15.9974245 C142.965745,15.9974245 142.871094,15.9517412 142.807993,15.8603734 C142.744892,15.7690056 142.713341,15.6571605 142.713341,15.5248347 C142.713341,15.4870273 142.719351,15.4240159 142.73137,15.3357987 L143.506611,10.6099008 L140.225361,7.26396509 C140.075119,7.09383192 140,6.9426047 140,6.81027889 C140,6.57713343 140.168268,6.43220734 140.504808,6.37549628 L145.030048,5.68551519 L147.058293,1.38494808 C147.172477,1.1265977 147.319711,0.997424451 147.5,0.997424451 C147.680289,0.997424451 147.827523,1.1265977 147.941707,1.38494808 L149.969952,5.68551519 L154.495192,6.37549628 C154.831732,6.43220734 155,6.57713343 155,6.81027889 Z M175,6.81027889 C175,6.94890593 174.921876,7.10013315 174.765625,7.26396509 L171.493389,10.6099008 L172.26863,15.3357987 C172.274639,15.3799073 172.277644,15.4429187 172.277644,15.5248347 C172.277644,15.6571605 172.246094,15.7690056 172.182993,15.8603734 C172.119892,15.9517412 172.028246,15.9974245 171.908053,15.9974245 C171.79387,15.9974245 171.673679,15.9596176 171.547476,15.8840029 L167.5,13.6533791 L163.452524,15.8840029 C163.320312,15.9596176 163.200121,15.9974245 163.091947,15.9974245 C162.965745,15.9974245 162.871094,15.9517412 162.807993,15.8603734 C162.744892,15.7690056 162.713341,15.6571605 162.713341,15.5248347 C162.713341,15.4870273 162.719351,15.4240159 162.73137,15.3357987 L163.506611,10.6099008 L160.225361,7.26396509 C160.075119,7.09383192 160,6.9426047 160,6.81027889 C160,6.57713343 160.168268,6.43220734 160.504808,6.37549628 L165.030048,5.68551519 L167.058293,1.38494808 C167.172477,1.1265977 167.319711,0.997424451 167.5,0.997424451 C167.680289,0.997424451 167.827523,1.1265977 167.941707,1.38494808 L169.969952,5.68551519 L174.495192,6.37549628 C174.831732,6.43220734 175,6.57713343 175,6.81027889 Z" id="" fill="#FFCA00"></path>
                        </g>
                    </g>
                </g>
            </g>
        </g>
    </g>
</svg>