<?xml version="1.0" encoding="UTF-8"?>
<svg width="20px" height="20px" viewBox="0 0 20 20" version="1.1" xmlns="http://www.w3.org/2000/svg" xmlns:xlink="http://www.w3.org/1999/xlink">
    <!-- Generator: Sketch 41.2 (35397) - http://www.bohemiancoding.com/sketch -->
    <title>nav-setting</title>
    <desc>Created with Sketch.</desc>
    <defs></defs>
    <g id="Symbols" stroke="none" stroke-width="1" fill="none" fill-rule="evenodd">
        <g id="Top-Bar" transform="translate(-1142.000000, -25.000000)" fill="#97A0AD">
            <g id="nav-setting">
                <g transform="translate(1142.000000, 25.000000)">
                    <path d="M10.0186611,7.18569038 C8.3874477,7.18569038 7.10610879,8.46711297 7.10610879,10.0982427 C7.10610879,11.7290377 8.3874477,13.0104603 10.0186611,13.0104603 C11.6494561,13.0104603 12.930795,11.7290377 12.930795,10.0982427 C12.930795,8.46711297 11.6494561,7.18569038 10.0186611,7.18569038 Z M10.0186611,11.8454393 C9.08669456,11.8454393 8.27112971,11.0302092 8.27112971,10.0982427 C8.27112971,9.16627615 9.08669456,8.3507113 10.0186611,8.3507113 C10.9505439,8.3507113 11.7658577,9.16627615 11.7658577,10.0982427 C11.7658577,11.0302092 10.9505439,11.8454393 10.0186611,11.8454393 Z" id="Fill-1"></path>
                    <path d="M18.5225105,7.88460251 L17.4741423,7.88460251 C17.3578243,7.88460251 17.2410879,7.88460251 17.2410879,7.76820084 C17.1247699,7.41874477 17.0080335,6.95263598 16.7753138,6.60317992 C16.7753138,6.60317992 16.6585774,6.48686192 16.7753138,6.37046025 L17.5905439,5.5548954 C18.1730544,4.97238494 18.1730544,4.15682008 17.5905439,3.57464435 L16.4258577,2.40962343 C15.8433473,1.94351464 14.9113808,1.94351464 14.445272,2.40962343 L13.6300418,3.22518828 L13.3969874,3.22518828 C13.0475314,3.10845188 12.5814226,2.87539749 12.2319665,2.7590795 C12.2319665,2.64267782 12.1155649,2.64267782 12.1155649,2.5260251 L12.1155649,1.4776569 C12.1152301,0.66209205 11.4164017,0.07958159 10.7174895,0.07958159 L9.20309623,0.07958159 C8.3874477,0.07958159 7.80502092,0.778493724 7.80502092,1.4776569 L7.80502092,2.5260251 C7.80502092,2.6423431 7.80502092,2.7590795 7.68861925,2.7590795 C7.33916318,2.87539749 6.87305439,2.99179916 6.52359833,3.22485356 C6.40719665,3.34125523 6.40719665,3.34125523 6.29054393,3.22485356 L5.47531381,2.4092887 C4.89280335,1.94351464 3.96083682,1.94351464 3.49472803,2.4092887 L2.32970711,3.57430962 C1.74719665,4.15682008 1.74719665,4.97238494 2.32970711,5.5548954 L3.14527197,6.37012552 L3.14527197,6.60317992 C3.02887029,6.95263598 2.7958159,7.30209205 2.67949791,7.76820084 C2.56276151,7.76820084 2.56276151,7.88460251 2.44635983,7.88460251 L1.39807531,7.88460251 C0.58251046,7.88460251 0,8.58376569 0,9.28267782 L0,10.7970711 C0,11.6123849 0.698912134,12.1948954 1.39807531,12.1948954 L2.44635983,12.1948954 C2.56276151,12.1948954 2.67949791,12.1948954 2.67949791,12.3115481 C2.7958159,12.6610042 2.91221757,13.1267782 3.14527197,13.4762343 C3.14527197,13.4762343 3.26167364,13.5929707 3.14527197,13.7092887 L2.32970711,14.5248536 C1.74719665,15.107364 1.74719665,15.9225941 2.32970711,16.5051046 L3.49472803,17.6701255 C4.07723849,18.1359833 5.00912134,18.1359833 5.47531381,17.6701255 L6.29054393,16.8545607 L6.52359833,16.8545607 C6.98937238,17.0876151 7.45556485,17.3206695 7.92167364,17.4370711 L7.92167364,18.6020921 C7.92167364,19.4176569 8.62058577,19.9998326 9.31941423,19.9998326 L10.8338912,19.9998326 C11.5327197,19.9998326 12.1152301,19.4176569 12.1152301,18.6020921 L12.1152301,17.5538075 C12.1152301,17.4374059 12.1152301,17.3206695 12.2316318,17.3206695 C12.5810879,17.2043515 13.0471967,17.0876151 13.3966527,16.8548954 C13.5129707,16.738159 13.5129707,16.738159 13.6297071,16.8548954 L14.445272,17.6701255 C15.0274477,18.136318 15.9594142,18.136318 16.425523,17.6701255 L17.5905439,16.5054393 C18.1730544,15.9229289 18.1730544,15.107364 17.5905439,14.5248536 L16.7749791,13.7096234 L16.7749791,13.476569 C16.8913808,13.127113 17.1244351,12.7776569 17.2407531,12.3115481 C17.3574895,12.3115481 17.3574895,12.1951464 17.4738075,12.1951464 L18.5221757,12.1951464 C19.3377406,12.1951464 19.920251,11.496318 19.920251,10.7970711 L19.920251,9.28267782 C19.9205858,8.46711297 19.2213389,7.88460251 18.5225105,7.88460251 Z M18.8719665,10.7970711 C18.8719665,10.9134728 18.7555649,11.0302092 18.6391632,11.0302092 L17.5905439,11.0302092 C17.0080335,11.0302092 16.5422594,11.3795816 16.309205,11.9620921 C16.1928033,12.3115481 15.959749,12.6610042 15.8433473,13.0104603 C15.6102929,13.5929707 15.6102929,14.1753975 16.0760669,14.6412552 L16.8916318,15.4568201 C17.0080335,15.4568201 17.0080335,15.5732218 16.8916318,15.6898745 L15.7266946,16.8545607 C15.7266946,16.9712971 15.6102929,16.9712971 15.4938912,16.8545607 L14.6783264,16.0393305 C14.2125523,15.5732218 13.6300418,15.5732218 13.0475314,15.8062762 C12.6980753,16.0393305 12.3482845,16.1557322 11.9989121,16.2720502 C11.4164017,16.3887866 11.0669456,16.9712971 11.0669456,17.5534728 L11.0669456,18.6020921 C11.0669456,18.7184937 10.9505439,18.8351464 10.8342259,18.8351464 L9.31974895,18.8351464 C9.20309623,18.8351464 9.08669456,18.7184937 9.08669456,18.6020921 L9.08669456,16.9712971 C9.08669456,16.738159 8.85364017,16.5051046 8.6209205,16.3887866 C8.15472803,16.2720502 7.57221757,16.0393305 7.10644351,15.8062762 C6.87338912,15.6895397 6.64058577,15.6895397 6.40753138,15.6895397 C6.058159,15.6895397 5.7083682,15.8062762 5.47564854,16.0389958 L4.66008368,16.8545607 C4.66008368,16.9709623 4.54368201,16.9709623 4.42694561,16.8545607 L3.26192469,15.6895397 C3.14560669,15.6895397 3.14560669,15.5732218 3.26192469,15.4568201 L4.07757322,14.6412552 C4.54368201,14.1751464 4.54368201,13.592636 4.31062762,13.0104603 C4.07757322,12.6606695 3.96117155,12.3112134 3.84443515,11.9617573 C3.72811715,11.3792469 3.14560669,11.0298745 2.56309623,11.0298745 L1.51447699,11.0298745 C1.39807531,11.0298745 1.28167364,10.9134728 1.28167364,10.7967364 L1.28167364,9.28267782 C1.28167364,9.16627615 1.39807531,9.04962343 1.51447699,9.04962343 L2.56309623,9.04962343 C3.14560669,9.04962343 3.61138075,8.70016736 3.84443515,8.1176569 C3.96083682,7.76820084 4.19389121,7.41874477 4.31029289,7.06937238 C4.54334728,6.48686192 4.54334728,5.90435146 4.07757322,5.438159 L3.26192469,4.62292887 C3.14560669,4.62292887 3.14560669,4.50627615 3.26192469,4.38987448 L4.42694561,3.22485356 C4.42694561,3.10845188 4.54334728,3.10845188 4.65974895,3.22485356 L5.47531381,4.04041841 C5.94108787,4.50627615 6.52359833,4.50627615 7.10610879,4.2734728 C7.45556485,4.04041841 7.80527197,3.92410042 8.15472803,3.80736402 C8.73723849,3.69096234 9.08669456,3.10845188 9.08669456,2.5260251 L9.08669456,1.4776569 C9.08669456,1.36100418 9.20309623,1.24460251 9.31941423,1.24460251 L10.8338912,1.24460251 C10.9505439,1.24460251 11.0669456,1.36100418 11.0669456,1.4776569 L11.0669456,2.5260251 C11.0669456,3.10845188 11.4164017,3.57430962 11.9989121,3.80736402 C12.3482845,3.92376569 12.6977406,4.15682008 13.0471967,4.27313808 C13.6297071,4.50627615 14.2122176,4.38987448 14.6783264,4.04041841 L15.4935565,3.22485356 C15.4935565,3.10845188 15.6102929,3.10845188 15.7266946,3.22485356 L16.8916318,4.38987448 C17.0080335,4.38987448 17.0080335,4.50627615 16.8916318,4.62292887 L16.0760669,5.438159 C15.6102929,5.90435146 15.6102929,6.48686192 15.8430126,7.06937238 C16.0760669,7.41874477 16.1924686,7.76820084 16.309205,8.1176569 C16.425523,8.70016736 17.0080335,9.04962343 17.5905439,9.04962343 L18.6388285,9.04962343 C18.7555649,9.04962343 18.8719665,9.16594142 18.8719665,9.28267782 L18.8719665,10.7970711 Z" id="Fill-2"></path>
                </g>
            </g>
        </g>
    </g>
</svg>