<?xml version="1.0" encoding="UTF-8"?>
<svg width="18px" height="20px" viewBox="0 0 18 20" version="1.1" xmlns="http://www.w3.org/2000/svg" xmlns:xlink="http://www.w3.org/1999/xlink">
    <!-- Generator: Sketch 41.2 (35397) - http://www.bohemiancoding.com/sketch -->
    <title>nav-notification</title>
    <desc>Created with Sketch.</desc>
    <defs></defs>
    <g id="Symbols" stroke="none" stroke-width="1" fill="none" fill-rule="evenodd">
        <g id="Top-Bar" transform="translate(-1182.000000, -23.000000)" fill="#97A0AD">
            <g id="nav-notification">
                <g transform="translate(1182.000000, 23.000000)">
                    <path d="M17.7505927,13.9735931 C17.7505927,13.6120346 17.5138512,13.3709091 17.1588666,13.3709091 C16.2122409,13.3709091 15.3837733,12.5274459 15.3837733,11.5632035 L15.3837733,9.15246753 C15.3837733,5.74034632 12.7472302,2.86701299 9.46685242,2.55480519 L9.46685242,0.715670996 C9.46685242,0.354112554 9.230451,0.112987013 8.87512633,0.112987013 C8.52014168,0.112987013 8.28340024,0.354112554 8.28340024,0.715670996 L8.28340024,2.55480519 C5.00336246,2.86701299 2.36690437,5.74034632 2.36690437,9.15246753 L2.36690437,11.5632035 C2.36690437,12.5274459 1.53843684,13.3709091 0.591726092,13.3709091 C0.23674144,13.3709091 0,13.6120346 0,13.9735931 C0,15.4548918 2.41399764,16.3660606 5.36064227,16.7590476 C5.53796458,18.6177489 6.99003542,20 8.87512633,20 C10.7602172,20 12.2122881,18.6177489 12.3899504,16.7590476 C15.336595,16.3660606 17.7505927,15.4548918 17.7505927,13.9735931 Z M8.87546635,18.794632 C7.74420779,18.794632 6.79384179,17.9752381 6.56441086,16.8905628 C7.32742385,16.9545455 8.10743802,16.987013 8.87546635,16.987013 C9.64349469,16.987013 10.4245289,16.9545455 11.1866068,16.8905628 C10.9568359,17.9752381 10.0068099,18.794632 8.87546635,18.794632 Z M8.87546635,15.781645 C4.85196694,15.781645 2.48506257,15.0585281 1.53843684,14.4558442 C2.72188902,13.9739394 3.55035655,12.8890043 3.55035655,11.5632035 L3.55035655,9.15246753 C3.55035655,6.13939394 5.91683589,3.72909091 8.87512633,3.72909091 C11.8337568,3.72909091 14.2003211,6.13939394 14.2003211,9.15246753 L14.2003211,11.5632035 C14.2003211,12.8890043 15.0287887,14.0942857 16.2122409,14.4558442 C15.2655301,15.0585281 12.8986257,15.781645 8.87546635,15.781645 Z" id="bell"></path>
                </g>
            </g>
        </g>
    </g>
</svg>